<svg width="25" height="25" viewBox="0 0 25 25" fill="none" xmlns="http://www.w3.org/2000/svg">
<path d="M12.5 9.50342C11.9073 9.50342 11.3279 9.67917 10.8351 10.0084C10.3423 10.3377 9.95824 10.8057 9.73143 11.3533C9.50462 11.9009 9.44528 12.5034 9.5609 13.0847C9.67653 13.666 9.96194 14.2 10.381 14.619C10.8001 15.0381 11.3341 15.3235 11.9154 15.4392C12.4967 15.5548 13.0992 15.4955 13.6468 15.2686C14.1943 15.0418 14.6624 14.6577 14.9916 14.1649C15.3209 13.6721 15.4967 13.0928 15.4967 12.5001C15.4967 12.1066 15.4191 11.7169 15.2686 11.3533C15.118 10.9897 14.8972 10.6594 14.619 10.3811C14.3407 10.1029 14.0103 9.88212 13.6468 9.73152C13.2832 9.58093 12.8935 9.50342 12.5 9.50342ZM24.4987 6.543C24.4924 5.60987 24.3206 4.68527 23.9912 3.81217C23.7487 3.17327 23.3734 2.59307 22.8902 2.10985C22.407 1.62662 21.8268 1.25137 21.1879 1.00883C20.3148 0.679517 19.3902 0.507688 18.4571 0.501331C16.8983 0.416748 16.4392 0.416748 12.5 0.416748C8.56082 0.416748 8.10166 0.416748 6.54291 0.501331C5.60978 0.507688 4.68518 0.679517 3.81207 1.00883C3.17318 1.25137 2.59298 1.62662 2.10976 2.10985C1.62653 2.59307 1.25127 3.17327 1.00874 3.81217C0.679425 4.68527 0.507597 5.60987 0.50124 6.543C0.416656 8.10175 0.416656 8.56092 0.416656 12.5001C0.416656 16.4393 0.416656 16.8984 0.50124 18.4572C0.514246 19.3936 0.685842 20.321 1.00874 21.2001C1.2502 21.8361 1.62515 22.4129 2.10832 22.8918C2.58947 23.3779 3.17092 23.7531 3.81207 23.9913C4.68518 24.3206 5.60978 24.4925 6.54291 24.4988C8.10166 24.5834 8.56082 24.5834 12.5 24.5834C16.4392 24.5834 16.8983 24.5834 18.4571 24.4988C19.3902 24.4925 20.3148 24.3206 21.1879 23.9913C21.8291 23.7531 22.4105 23.3779 22.8917 22.8918C23.3748 22.4129 23.7498 21.8361 23.9912 21.2001C24.3202 20.3227 24.492 19.3942 24.4987 18.4572C24.5833 16.8984 24.5833 16.4393 24.5833 12.5001C24.5833 8.56092 24.5833 8.10175 24.4987 6.543ZM21.4296 16.2097C21.3908 16.9553 21.2317 17.6898 20.9583 18.3847C20.7237 18.9643 20.375 19.4908 19.9329 19.933C19.4907 20.3751 18.9642 20.7238 18.3846 20.9584C17.6832 21.2165 16.9446 21.3593 16.1975 21.3813H8.80249C8.05541 21.3593 7.31683 21.2165 6.61541 20.9584C6.0162 20.7357 5.47508 20.3805 5.03249 19.9192C4.59467 19.4858 4.25655 18.9621 4.04166 18.3847C3.78254 17.684 3.64364 16.9445 3.63082 16.1976V8.80258C3.64364 8.05562 3.78254 7.31619 4.04166 6.6155C4.26433 6.01629 4.61957 5.47517 5.08082 5.03258C5.51623 4.59713 6.03935 4.25936 6.61541 4.04175C7.31683 3.78366 8.05541 3.64084 8.80249 3.61883H16.1975C16.9446 3.64084 17.6832 3.78366 18.3846 4.04175C18.9838 4.26442 19.5249 4.61966 19.9675 5.08092C20.4053 5.5144 20.7434 6.03808 20.9583 6.6155C21.2164 7.31692 21.3592 8.05551 21.3812 8.80258V12.5001C21.3812 14.9892 21.4658 15.243 21.4296 16.1976V16.2097ZM19.4962 7.21967C19.3524 6.82935 19.1255 6.4749 18.8314 6.18076C18.5373 5.88661 18.1828 5.65978 17.7925 5.51592C17.2566 5.33015 16.6921 5.24016 16.125 5.25008H8.87499C8.30498 5.25565 7.74045 5.36201 7.20749 5.56425C6.82315 5.70158 6.47245 5.91915 6.1787 6.20249C5.88494 6.48583 5.65486 6.82845 5.50374 7.20758C5.32826 7.74573 5.24253 8.30909 5.24999 8.87508V16.1251C5.26197 16.6944 5.36813 17.2579 5.56416 17.7926C5.70803 18.1829 5.93486 18.5373 6.229 18.8315C6.52314 19.1256 6.8776 19.3525 7.26791 19.4963C7.78346 19.6859 8.32599 19.792 8.87499 19.8105H16.125C16.695 19.8049 17.2595 19.6986 17.7925 19.4963C18.1828 19.3525 18.5373 19.1256 18.8314 18.8315C19.1255 18.5373 19.3524 18.1829 19.4962 17.7926C19.6985 17.2596 19.8048 16.6951 19.8104 16.1251V8.87508C19.8108 8.30451 19.7042 7.73891 19.4962 7.20758V7.21967ZM12.5 17.1159C11.8944 17.1159 11.2948 16.9964 10.7354 16.7643C10.1761 16.5322 9.66802 16.192 9.24037 15.7632C8.81271 15.3345 8.47386 14.8255 8.24321 14.2656C8.01256 13.7056 7.89465 13.1057 7.89624 12.5001C7.89624 11.5866 8.16727 10.6937 8.675 9.93441C9.18273 9.17508 9.90434 8.58347 10.7485 8.23446C11.5926 7.88546 12.5213 7.79476 13.417 7.97385C14.3127 8.15293 15.1352 8.59375 15.7802 9.24049C16.4253 9.88724 16.8639 10.7108 17.0407 11.607C17.2174 12.5032 17.1243 13.4317 16.7731 14.2749C16.4219 15.1181 15.8284 15.8382 15.0677 16.3439C14.307 16.8496 13.4134 17.1183 12.5 17.1159ZM17.3333 8.7905C17.0662 8.76223 16.819 8.6361 16.6394 8.43642C16.4597 8.23674 16.3603 7.97764 16.3603 7.70904C16.3603 7.44044 16.4597 7.18134 16.6394 6.98166C16.819 6.78198 17.0662 6.65586 17.3333 6.62758C17.6004 6.65586 17.8476 6.78198 18.0273 6.98166C18.2069 7.18134 18.3064 7.44044 18.3064 7.70904C18.3064 7.97764 18.2069 8.23674 18.0273 8.43642C17.8476 8.6361 17.6004 8.76223 17.3333 8.7905Z" fill="#564dfc"/>
</svg>
