<svg width="585" height="419" viewBox="0 0 585 419" fill="none" xmlns="http://www.w3.org/2000/svg">
<g clip-path="url(#clip0_6_241)">
<path opacity="0.1" d="M585 268.858C585.01 280.2 583.831 291.5 581.488 302.509C580.7 306.215 579.785 309.848 578.742 313.407C577.464 317.795 575.985 322.1 574.311 326.303C573.467 328.426 572.575 330.51 571.634 332.555C571.649 344.185 569.591 355.693 565.59 366.351C558.353 385.471 545.454 400.931 529.242 409.917C519.093 415.549 508 418.509 496.755 418.584H111.052C93.8905 418.629 77.0244 413.386 62.1692 403.388C59.9739 401.909 57.8349 400.334 55.7521 398.662C51.2299 395.027 46.9813 390.953 43.052 386.482C37.7325 380.428 33.0462 373.666 29.0903 366.334C19.7964 349.166 14.873 329.287 14.8902 308.998C5.47812 289.786 -0.0101929 266.772 -0.0101929 242.042C-0.0101929 210.841 8.71151 182.378 23.0407 160.832C26.0281 156.331 29.3004 152.095 32.8303 148.161C36.3132 144.268 40.0567 140.703 44.0255 137.5C47.1996 134.933 50.5183 132.617 53.9591 130.567C55.3945 129.712 56.8349 128.914 58.3001 128.169C59.5865 127.504 60.8878 126.886 62.204 126.302C63.7834 125.601 65.3828 124.96 67.0019 124.378C68.6211 123.797 70.2188 123.284 71.7949 122.841C74.1127 122.183 76.4703 121.647 78.8676 121.235C80.8543 120.894 82.8411 120.657 84.8278 120.472C86.4072 120.341 87.9999 120.264 89.6058 120.241H90.475C92.2432 120.241 94.0015 120.322 95.7448 120.461C95.9286 120.033 96.1273 119.6 96.311 119.172C97.0064 117.635 97.7266 116.098 98.4517 114.59V114.55C98.5759 114.29 98.7001 114.03 98.8292 113.776C99.4153 112.545 100.026 111.326 100.652 110.118C100.94 109.54 101.223 108.997 101.516 108.448C101.581 108.315 101.645 108.188 101.72 108.055C102.018 107.478 102.321 106.9 102.629 106.322C104.162 103.475 105.756 100.673 107.412 97.915C107.556 97.6781 107.69 97.447 107.834 97.2158C108.092 96.7883 108.331 96.3665 108.619 95.9447C109.304 94.8295 110.009 93.7086 110.72 92.605C111.216 91.8249 111.713 91.0449 112.249 90.2938C113.541 88.3523 114.867 86.4225 116.223 84.5157C117.579 82.609 119.009 80.6907 120.455 78.8128C120.653 78.5528 120.852 78.2986 121.061 78.0385L123.181 75.3518C123.286 75.2246 123.375 75.1091 123.474 74.9935C123.728 74.6757 123.971 74.3579 124.244 74.0459C125.382 72.6476 126.549 71.2667 127.721 69.9031C133.708 62.9823 140.087 56.5351 146.813 50.6044C147.077 50.3618 147.345 50.1306 147.608 49.8995C148.87 48.7901 150.151 47.6981 151.433 46.6234C158.482 40.7431 165.85 35.397 173.49 30.6182C174.017 30.2715 174.553 29.9422 175.094 29.6128C181.946 25.399 188.991 21.6261 196.198 18.311C200.125 16.5044 204.122 14.8172 208.188 13.2494C210.88 12.2267 213.582 11.2502 216.319 10.3604C220.551 8.94672 224.835 7.6717 229.173 6.53536C241.952 3.19961 254.953 1.139 268.033 0.375969C272.007 0.133291 276.025 0.0119542 280.088 0.0119542C299.692 -0.0182383 319.219 2.85536 338.199 8.56344C338.396 8.90845 338.664 9.1897 338.979 9.38074C339.295 9.57178 339.647 9.66633 340.002 9.65549H341.671C342.396 9.88084 343.116 10.1177 343.842 10.3604C347.891 11.7202 351.883 13.2013 355.817 14.8037L356.81 15.2197C366.519 19.2359 375.966 24.0636 385.076 29.6648C393.287 34.704 401.195 40.3873 408.743 46.6754C409.905 47.6461 411.051 48.6264 412.18 49.6164C413.551 48.5879 414.945 47.6076 416.362 46.6754C421.835 43.0511 427.648 40.1702 433.686 38.0892C446.311 33.7431 459.669 33.1353 472.546 36.3211C489.061 40.3946 504.011 50.5062 516.085 64.8877C521.004 70.753 525.385 77.1974 529.158 84.117C529.431 84.614 529.704 85.1166 529.968 85.6251C533.204 91.7702 535.986 98.2244 538.282 104.918C538.367 105.161 538.451 105.398 538.525 105.64C540.646 111.904 542.356 118.346 543.641 124.91C543.701 125.239 543.77 125.574 543.83 125.91C545.032 132.262 545.849 138.705 546.274 145.191C546.274 145.422 546.274 145.659 546.313 145.896C546.522 149.251 546.628 152.643 546.631 156.071C546.631 159.133 546.542 162.173 546.378 165.183C546.378 165.512 546.338 165.859 546.313 166.194C546.269 167.072 546.204 167.927 546.14 168.811C549.933 172.369 553.483 176.264 556.759 180.46C558.206 182.297 559.606 184.206 560.961 186.186C565.087 192.2 568.712 198.656 571.788 205.467C580.172 223.945 585 245.636 585 268.858Z" fill="#00B2FF"/>
<path opacity="0.1" d="M528.875 382.587C528.875 395.72 517.173 408.01 496.755 418.596H111.053C93.207 418.596 76.4937 411.084 62.1695 397.985C58.5685 393.016 56.6712 387.868 56.6712 382.581C56.6712 368.621 69.9028 355.592 92.7799 344.579L93.4255 344.278C99.8824 341.199 107.099 338.292 114.986 335.559C115.185 335.49 115.389 335.427 115.587 335.346C121.846 333.208 128.503 331.182 135.559 329.267C135.782 329.209 136.001 329.146 136.224 329.1C138.946 328.348 141.723 327.649 144.559 326.95L145.651 326.684C166.289 321.704 189.747 317.752 215.187 315.071H215.217C218.779 314.685 222.38 314.341 226.019 314.036C230.067 313.661 234.165 313.343 238.307 313.048C241.471 312.811 244.675 312.609 247.888 312.424C247.9 312.418 247.913 312.415 247.925 312.415C247.938 312.415 247.951 312.418 247.963 312.424C262.461 311.575 277.441 311.13 292.758 311.13C330.635 311.13 366.436 313.834 398.159 318.641C398.188 318.635 398.219 318.635 398.248 318.641C403.126 319.381 407.914 320.161 412.582 320.993C413.918 321.236 415.25 321.478 416.556 321.727C421.824 322.717 426.956 323.763 431.953 324.864C490.71 337.859 528.875 358.885 528.875 382.587Z" fill="#00B2FF"/>
<path d="M432.857 140.568C432.857 140.568 427.602 138.089 410.884 147.005C394.165 155.92 392.079 154.794 387.753 153.453C383.427 152.113 381.013 151.766 376.374 144.318C376.374 144.318 373.101 123.685 369.918 120.484C366.734 117.283 353.294 122.309 353.294 122.309C353.294 122.309 337.157 126.614 334.082 101.509C334.082 101.509 336.263 82.6028 333.292 76.8017C333.292 76.8017 339.292 79.8062 349.186 74.9527C359.08 70.0991 367.002 80.1818 367.002 80.1818C367.002 80.1818 369.485 87.6933 369.237 92.177C368.989 96.6608 370.558 98.3422 375.277 96.1754C375.277 96.1754 377.596 92.3388 374.313 85.9945C371.03 79.6502 368.686 74.9296 369.6 70.0067C370.514 65.0838 373.151 58.2484 381.619 54.8336C390.088 51.4188 401.586 50.7889 407.104 48.0906C412.622 45.3923 413.983 43.6704 413.983 43.6704C413.983 43.6704 410.586 47.6284 418.587 64.4136C426.589 81.1987 421.488 88.4791 421.488 88.4791C421.488 88.4791 417.231 100.284 398.437 99.3245C398.437 99.3245 380.328 100.093 390.202 109.026C390.202 109.026 396.525 107.529 405.977 104.034C415.428 100.538 422.253 114.966 423.946 125.002C425.64 135.038 432.857 140.568 432.857 140.568Z" fill="#00B2FF"/>
<path d="M408.515 56.3821L408.614 56.3474C409.339 59.5484 401.248 72.4219 394.329 82.6548L394.25 82.5797C404.005 68.1693 409.076 58.8609 408.515 56.3821Z" fill="#444053"/>
<path d="M394.389 82.3832L394.434 82.5103C388.906 90.6804 381.957 100.422 376.394 107.662C375.863 108.35 375.336 109.072 374.83 109.812L374.671 109.661C375.167 108.922 375.709 108.194 376.24 107.506C381.798 100.295 388.856 90.5591 394.389 82.3832Z" fill="#444053"/>
<path d="M374.805 109.476L374.914 109.696C364.792 124.401 364.121 147.253 364.096 147.432L361.961 144.543C361.986 144.358 364.613 124.286 374.805 109.476Z" fill="#444053"/>
<path d="M421.14 132.594C421.14 132.594 409.22 125.372 399.902 127.972C390.584 130.572 369.629 118.785 369.629 118.785C369.629 118.785 360.739 114.584 358.951 109.794C358.951 109.794 352.847 102.283 352.494 98.4057C352.141 94.5287 346.206 84.758 342.332 84.3824" stroke="#444053" stroke-miterlimit="10"/>
<path d="M419.387 139.545C419.387 139.545 413.377 134.83 414.077 129.341" stroke="#444053" stroke-miterlimit="10"/>
<path d="M410.168 145.63C410.168 145.63 401.571 142.001 400.732 127.764" stroke="#444053" stroke-miterlimit="10"/>
<path d="M396.306 149.316C396.306 149.316 388.091 141.389 390.818 127.533" stroke="#444053" stroke-miterlimit="10"/>
<path d="M379.623 145.445C379.623 145.445 374.159 132.097 379.022 123.413" stroke="#444053" stroke-miterlimit="10"/>
<path d="M421.254 123.794C421.254 123.794 415.041 126.106 416.372 129.896" stroke="#444053" stroke-miterlimit="10"/>
<path d="M413.755 110.696C413.755 110.696 405.435 113.764 405.241 127.452" stroke="#444053" stroke-miterlimit="10"/>
<path d="M402.152 107.506C402.152 107.506 394.578 118.38 395.134 128.261" stroke="#444053" stroke-miterlimit="10"/>
<path d="M388.891 111.77C388.891 111.77 381.371 120.137 382.33 124.788" stroke="#444053" stroke-miterlimit="10"/>
<path d="M384.356 108.818C384.356 108.818 377.303 110.285 376.315 107.593" stroke="#444053" stroke-miterlimit="10"/>
<path d="M375.192 98.9142C375.192 98.9142 378.754 104.403 379.662 103.173" stroke="#444053" stroke-miterlimit="10"/>
<path d="M410.516 95.4416C410.516 95.4416 392.735 96.9439 388.712 90.7036" stroke="#444053" stroke-miterlimit="10"/>
<path d="M371.472 71.2489C371.472 71.2489 379.811 92.0787 385.876 94.7308" stroke="#444053" stroke-miterlimit="10"/>
<path d="M380.204 61.3281C380.204 61.3281 385.325 80.4881 391.672 86.4684" stroke="#444053" stroke-miterlimit="10"/>
<path d="M417.996 79.6272C417.996 79.6272 404.477 86.3759 396.361 79.5463" stroke="#444053" stroke-width="0.75" stroke-miterlimit="10"/>
<path d="M392.243 57.243C392.243 57.243 395.333 71.3241 399.495 74.7274" stroke="#444053" stroke-width="0.75" stroke-miterlimit="10"/>
<path d="M415.955 63.8473C415.955 63.8473 408.356 67.1986 405.525 64.6331" stroke="#444053" stroke-width="0.75" stroke-miterlimit="10"/>
<path d="M368.681 103.514C368.681 103.514 368.681 115.792 365.81 116.664" stroke="#444053" stroke-miterlimit="10"/>
<path d="M345.193 119.42C345.193 119.42 356.616 120.576 361.866 113.706" stroke="#444053" stroke-miterlimit="10"/>
<path d="M365.74 89.0106C365.74 89.0106 362.979 101.462 355.36 104.819" stroke="#444053" stroke-miterlimit="10"/>
<path d="M338.349 106.304C338.349 106.304 346.425 109.569 353.373 101.254" stroke="#444053" stroke-miterlimit="10"/>
<path d="M356.756 78.304C356.756 78.304 355.996 88.8778 351.054 93.8295" stroke="#444053" stroke-miterlimit="10"/>
<path d="M338.656 90.1893C338.656 90.1893 345.357 90.2413 346.926 87.699" stroke="#444053" stroke-miterlimit="10"/>
<path d="M387.118 130.341H196.293V242.4H387.118V130.341Z" fill="#33323D"/>
<path d="M447.166 276.444H136.85V350.207H447.166V276.444Z" fill="#33323D"/>
<path d="M210.925 294.882H370.047L401.75 419H177.394L210.925 294.882Z" fill="white"/>
<path d="M128.009 232.468V270.77V278.836V350.201H187.452V282.118H396.564V350.201H456.007V278.836V270.77V232.468H128.009Z" fill="#504F60"/>
<path opacity="0.1" d="M456.007 232.468H128.009V270.764H456.007V232.468Z" fill="#33323D"/>
<path opacity="0.8" d="M438.33 257.296C441.024 257.296 443.208 254.756 443.208 251.622C443.208 248.488 441.024 245.948 438.33 245.948C435.637 245.948 433.453 248.488 433.453 251.622C433.453 254.756 435.637 257.296 438.33 257.296Z" fill="#8CCF4D"/>
<path opacity="0.8" d="M416.382 257.296C419.076 257.296 421.259 254.756 421.259 251.622C421.259 248.488 419.076 245.948 416.382 245.948C413.688 245.948 411.505 248.488 411.505 251.622C411.505 254.756 413.688 257.296 416.382 257.296Z" fill="#FA5959"/>
<path d="M380.109 103.386H203.306V225.372H380.109V103.386Z" fill="white"/>
<path d="M407.005 281.431C407.377 286.151 404.313 290.733 405.207 295.356C405.395 296.344 405.763 297.28 405.897 298.245C406.265 300.989 404.859 303.59 403.513 305.889L391.975 325.639C391.512 326.505 390.958 327.301 390.326 328.007C388.116 330.319 384.808 330.053 381.912 330.735C379.877 331.215 377.954 332.2 376.275 333.624C376.202 333.691 376.154 333.788 376.14 333.896C376.126 334.003 376.148 334.112 376.201 334.202C376.678 334.963 377.312 335.574 378.044 335.978C378.776 336.381 379.584 336.565 380.393 336.513C380.696 336.975 380.393 337.668 379.975 337.992C379.355 338.489 378.485 338.622 378.381 339.847C378.337 340.272 378.41 340.703 378.59 341.077C379.057 341.905 379.781 342.489 380.611 342.707C384.585 344.128 388.921 341.632 391.911 338.235C394.901 334.837 397.046 330.55 399.982 327.089C401.606 325.176 403.458 323.535 405.127 321.681C408.465 317.983 411.087 313.482 413.571 308.969C414.391 307.66 415.009 306.196 415.399 304.641C415.707 303.104 415.567 301.481 415.925 299.955C416.392 297.962 417.649 296.373 418.692 294.697C420.743 291.415 422.109 287.405 421.836 283.361C421.562 279.316 419.417 275.335 416.139 273.96C415.122 273.489 414.003 273.41 412.945 273.734C411.599 274.214 410.611 275.508 409.692 276.745L407.501 279.686C406.955 280.337 406.522 281.104 406.225 281.945C406.084 282.369 406.051 282.832 406.132 283.277C406.212 283.722 406.401 284.13 406.677 284.453" fill="#FBBEBE"/>
<path opacity="0.05" d="M407.005 281.431C407.377 286.151 404.313 290.733 405.207 295.356C405.395 296.344 405.763 297.28 405.897 298.245C406.265 300.989 404.859 303.59 403.513 305.889L391.975 325.639C391.512 326.505 390.958 327.301 390.326 328.007C388.116 330.319 384.808 330.053 381.912 330.735C379.877 331.215 377.954 332.2 376.275 333.624C376.202 333.691 376.154 333.788 376.14 333.896C376.126 334.003 376.148 334.112 376.201 334.202C376.678 334.963 377.312 335.574 378.044 335.978C378.776 336.381 379.584 336.565 380.393 336.513C380.696 336.975 380.393 337.668 379.975 337.992C379.355 338.489 378.485 338.622 378.381 339.847C378.337 340.272 378.41 340.703 378.59 341.077C379.057 341.905 379.781 342.489 380.611 342.707C384.585 344.128 388.921 341.632 391.911 338.235C394.901 334.837 397.046 330.55 399.982 327.089C401.606 325.176 403.458 323.535 405.127 321.681C408.465 317.983 411.087 313.482 413.571 308.969C414.391 307.66 415.009 306.196 415.399 304.641C415.707 303.104 415.567 301.481 415.925 299.955C416.392 297.962 417.649 296.373 418.692 294.697C420.743 291.415 422.109 287.405 421.836 283.361C421.562 279.316 419.417 275.335 416.139 273.96C415.122 273.489 414.003 273.41 412.945 273.734C411.599 274.214 410.611 275.508 409.692 276.745L407.501 279.686C406.955 280.337 406.522 281.104 406.225 281.945C406.084 282.369 406.051 282.832 406.132 283.277C406.212 283.722 406.401 284.13 406.677 284.453" fill="black"/>
<path d="M415.741 402.937C413.218 404.723 410.079 404.838 407.149 404.416C406.652 404.353 406.121 404.312 405.818 404.734C405.381 405.352 405.897 406.254 406.429 406.751C408.16 408.258 410.192 409.231 412.334 409.576C414.246 409.886 416.175 410.035 418.105 410.021C423.37 410.125 428.665 410.229 433.88 409.345C434.181 409.319 434.474 409.218 434.739 409.05C435.076 408.777 435.309 408.363 435.39 407.895C435.753 406.323 435.062 404.624 434.024 403.532C432.986 402.44 431.65 401.828 430.344 401.221L425.764 399.147C424.686 398.656 422.963 397.367 421.791 397.465C419.65 397.668 417.559 401.701 415.741 402.937Z" fill="#3F3D56"/>
<path opacity="0.05" d="M415.741 402.937C413.218 404.723 410.079 404.838 407.149 404.416C406.652 404.353 406.121 404.312 405.818 404.734C405.381 405.352 405.897 406.254 406.429 406.751C408.16 408.258 410.192 409.231 412.334 409.576C414.246 409.886 416.175 410.035 418.105 410.021C423.37 410.125 428.665 410.229 433.88 409.345C434.181 409.319 434.474 409.218 434.739 409.05C435.076 408.777 435.309 408.363 435.39 407.895C435.753 406.323 435.062 404.624 434.024 403.532C432.986 402.44 431.65 401.828 430.344 401.221L425.764 399.147C424.686 398.656 422.963 397.367 421.791 397.465C419.65 397.668 417.559 401.701 415.741 402.937Z" fill="black"/>
<path d="M418.935 332.185C417.033 335.138 415.056 338.541 415.528 342.198C415.781 344.169 416.73 345.908 417.425 347.728C418.295 350.232 418.94 352.835 419.347 355.494C420.062 359.359 420.778 363.236 421.215 367.159C421.711 371.591 419.377 384.413 419.158 388.879C419.104 389.954 418.999 391.121 418.354 391.895C418.101 392.201 417.763 392.473 417.653 392.849C417.584 393.231 417.637 393.63 417.803 393.97C418.88 396.795 421.081 398.892 423.524 400.094C425.968 401.296 431.913 403.359 434.565 403.469C434.918 403.518 435.275 403.462 435.604 403.307C435.962 403.058 436.243 402.684 436.408 402.238C438.325 397.98 436.483 382.818 436.512 378.005C436.512 373.96 437.352 370.008 437.203 365.998C437.079 362.78 436.339 359.642 436.07 356.43C435.628 351.166 436.458 345.885 437.292 340.685C437.928 336.703 438.564 332.717 439.378 328.776C439.875 326.378 440.451 323.951 441.588 321.842C442.487 320.184 443.709 318.803 444.737 317.22C447.587 312.875 448.852 307.399 448.259 301.977C448.199 301.446 441.643 303.913 441.072 304.202C438.719 305.366 436.554 306.988 434.67 308.998C433.18 310.673 431.963 312.921 430.632 314.805C428.754 317.463 426.902 320.142 425.074 322.842C422.998 325.943 420.951 329.057 418.935 332.185Z" fill="#464353"/>
<path opacity="0.05" d="M418.935 331.994C417.033 334.947 415.056 338.35 415.528 342.014C415.781 343.978 416.73 345.717 417.425 347.537C418.295 350.042 418.939 352.644 419.347 355.303C420.062 359.169 420.778 363.046 421.215 366.969C421.711 371.401 419.377 384.228 419.158 388.694C419.104 389.763 418.999 390.936 418.354 391.705C418.101 392.011 417.763 392.282 417.653 392.658C417.578 393.051 417.631 393.463 417.803 393.814C418.88 396.633 421.081 398.737 423.524 399.933C425.968 401.129 431.913 402.244 434.565 402.342C434.918 402.391 435.275 402.336 435.604 402.18C435.962 401.931 436.243 401.557 436.408 401.111C438.325 396.853 436.483 382.656 436.512 377.849C436.512 373.804 437.352 369.846 437.203 365.836C437.079 362.618 436.339 359.481 436.07 356.268C435.628 351.004 436.458 345.723 437.292 340.529C437.928 336.542 438.564 332.555 439.378 328.614C439.875 326.216 440.451 323.79 441.588 321.681C442.487 320.028 443.709 318.641 444.737 317.093C447.584 312.746 448.848 307.272 448.259 301.85C448.199 301.313 441.643 303.78 441.072 304.075C438.717 305.24 436.552 306.866 434.67 308.882C433.18 310.564 431.963 312.806 430.632 314.66C428.754 317.318 426.902 319.999 425.074 322.703C422.998 325.785 420.951 328.882 418.935 331.994Z" fill="black"/>
<path d="M397.732 267.176C403.638 267.176 408.425 261.607 408.425 254.736C408.425 247.866 403.638 242.296 397.732 242.296C391.826 242.296 387.038 247.866 387.038 254.736C387.038 261.607 391.826 267.176 397.732 267.176Z" fill="#FBBEBE"/>
<path d="M407.357 254.216C408.345 256.051 409.64 257.636 411.164 258.876C412.689 260.117 414.413 260.989 416.233 261.439L415.428 264.83C414.038 270.684 412.448 276.872 408.589 280.928C409.011 278.946 408.465 276.814 407.501 275.11C406.471 273.451 405.249 271.966 403.871 270.695L397.717 264.466C397.533 264.309 397.377 264.113 397.255 263.889C397.106 263.451 397.106 262.963 397.255 262.525C398.04 259.688 400.28 257.903 402.093 255.996C403.004 255.002 403.82 253.896 404.526 252.697C405.788 250.657 406.548 252.697 407.357 254.216Z" fill="#FBBEBE"/>
<path d="M383.641 242.233L383.402 239.921C385.091 240.43 386.69 238.766 387.768 237.032C388.846 235.299 389.849 233.265 391.493 232.549C393.48 231.67 395.606 233.074 397.513 234.23C399.651 235.614 401.999 236.507 404.427 236.859C404.814 236.874 405.198 236.948 405.569 237.079C406.811 237.593 407.402 239.39 407.581 241.048C407.76 242.706 407.71 244.44 408.326 245.907C408.788 247.017 409.587 247.843 410.074 248.935C411.38 251.882 410.119 255.903 411.5 258.792L408.073 255.135C407.755 254.8 407.313 254.453 406.97 254.736C406.627 255.019 406.677 255.447 406.563 255.834C406.23 256.99 405.013 257.313 404.124 256.868C403.235 256.423 402.594 255.441 401.943 254.557C400.429 252.477 398.626 250.651 396.48 249.761C395.551 249.347 394.557 249.168 393.565 249.237C392.572 249.306 391.603 249.621 390.723 250.16C389.124 251.212 387.952 253.662 385.995 253.748C383.308 253.864 382.191 248.045 380.944 245.746C381.398 245.346 381.717 244.774 381.846 244.129C381.975 243.484 381.905 242.807 381.649 242.215C381.868 242.117 383.606 241.857 383.641 242.233Z" fill="#464353"/>
<path d="M428.213 402.839C426.099 405.031 423.356 406.221 420.524 406.173C419.804 406.173 418.806 406.335 418.801 407.172C418.813 407.422 418.886 407.662 419.009 407.866C419.906 409.599 421.321 410.887 422.983 411.483C424.523 412.026 426.172 411.934 427.781 411.841L432.474 411.558C433.359 411.5 434.248 411.448 435.132 411.321C436.016 411.194 436.969 410.98 437.893 410.824C440.156 410.448 442.444 410.322 444.728 410.449C445.333 410.477 446.034 410.449 446.411 409.917C446.789 409.385 446.585 408.426 446.446 407.658C446.168 406.075 446.446 404.416 446.188 402.827C445.736 400.037 443.675 397.904 441.4 396.893C439.289 395.957 435.544 394.888 433.542 396.443C431.397 398.118 430.105 400.845 428.213 402.839Z" fill="#3F3D56"/>
<path d="M432.862 309.46C433.279 311.771 435.181 313.505 435.241 315.816C435.286 317.688 434.133 319.283 433.309 320.872C432.521 322.536 431.856 324.276 431.322 326.072C429.755 330.733 427.812 335.212 425.521 339.448C424.418 341.476 423.187 343.683 423.44 346.07C423.613 347.183 423.949 348.254 424.433 349.236L427.736 356.869C428.462 358.393 429.029 360.013 429.425 361.693C429.708 363.144 429.738 364.646 429.922 366.125C430.443 370.805 432.33 375.52 431.218 380.056C431.119 380.449 430.771 380.923 430.508 380.634C431.595 383.003 432.494 385.395 432.39 388.082C432.345 389.492 431.973 390.971 432.425 392.277C432.681 392.785 432.849 393.346 432.921 393.929C432.921 394.31 432.768 394.674 432.733 395.085C432.643 396.165 433.493 397.067 434.382 397.396C435.271 397.725 436.229 397.714 437.123 398.026C438.847 398.604 440.069 400.337 441.544 401.539C443.038 402.744 444.803 403.413 446.62 403.463C446.878 403.495 447.138 403.434 447.365 403.29C447.495 403.158 447.6 402.996 447.672 402.813C447.744 402.631 447.781 402.433 447.782 402.232C447.861 401.275 447.737 400.31 447.42 399.423C447.103 398.535 446.603 397.752 445.964 397.142C445.687 396.936 445.457 396.654 445.294 396.321C445.21 396.025 445.188 395.71 445.229 395.403C445.498 391.202 445.433 386.982 445.036 382.795C444.856 381.469 444.798 380.125 444.862 378.785C444.961 377.67 445.249 376.56 445.14 375.445C445.031 374.33 444.549 373.325 444.261 372.25C443.764 370.343 443.893 368.298 443.839 366.299C443.749 362.832 443.069 359.434 442.388 356.06C442.125 354.737 441.827 353.344 441.017 352.362C440.332 351.53 439.224 350.727 439.483 349.617C439.624 349.207 439.837 348.835 440.108 348.525C440.429 348.059 440.664 347.523 440.8 346.947C440.936 346.372 440.969 345.771 440.898 345.18C441.189 345.27 441.497 345.238 441.769 345.09C442.042 344.942 442.261 344.688 442.388 344.371C447.757 341.43 452.098 335.536 454.011 328.996C454.118 328.513 454.285 328.052 454.507 327.626C455.004 326.817 455.868 326.471 456.633 326.02C459.037 324.616 460.701 321.975 462.226 319.392C463.115 317.89 463.999 316.342 464.381 314.579C464.59 313.44 464.69 312.277 464.679 311.113L464.813 305.092C464.84 304.703 464.807 304.311 464.714 303.936C464.588 303.577 464.398 303.252 464.158 302.983C462.701 301.179 460.787 299.964 458.694 299.516C457.284 299.221 455.843 299.279 454.418 299.14C451.651 298.875 448.92 297.881 446.153 298.112C441.802 298.482 437.933 301.989 435.882 306.467C435.162 308.068 434.407 309.46 432.862 309.46Z" fill="#464353"/>
<path d="M408.723 270.308C408.786 271.236 408.679 272.17 408.41 273.047C408.073 273.89 407.218 274.543 406.478 274.202C406.702 273.625 406.106 272.937 405.554 273.012C405.282 273.083 405.028 273.23 404.815 273.44C404.602 273.65 404.436 273.918 404.333 274.22C403.962 275.078 403.839 276.053 403.98 276.999C404.154 278.155 404.74 279.31 404.586 280.466C404.462 281.448 403.841 282.43 404.174 283.355C404.388 283.77 404.656 284.144 404.968 284.464C405.405 285.087 405.619 285.881 405.566 286.682C405.514 287.484 405.198 288.231 404.685 288.769L413.02 288.96C412.717 290.583 413.337 292.241 414.053 293.68C416.054 297.635 418.815 300.996 422.12 303.502C425.424 306.008 429.182 307.591 433.1 308.125C432.889 308.271 432.708 308.468 432.57 308.705C432.432 308.941 432.341 309.21 432.303 309.492C432.265 309.775 432.281 310.063 432.35 310.337C432.419 310.611 432.54 310.864 432.703 311.078C433.378 311.858 434.526 311.76 435.375 311.251C436.224 310.743 436.895 309.905 437.67 309.258C439.036 308.125 440.707 307.6 442.378 307.779C443.421 307.894 444.435 308.287 445.483 308.356C448.572 308.547 451.224 305.964 454.179 304.89C456.345 304.115 458.794 304.115 460.636 302.544C461.421 301.868 462.062 300.758 461.833 299.655C461.639 299.021 461.333 298.443 460.934 297.956C459.886 296.384 459.27 294.489 458.525 292.704C457.039 289.165 454.996 285.982 452.501 283.32C450.621 281.404 448.63 279.641 446.54 278.045C446.032 277.603 445.49 277.217 444.921 276.889C444.163 276.602 443.422 276.252 442.706 275.843C441.713 275.127 441.161 273.862 440.411 272.839C438.757 270.597 436.219 269.563 434.183 267.8C432.817 266.645 431.615 265.062 429.981 264.49C429.191 264.212 428.347 264.189 427.552 263.912C425.754 263.276 424.443 261.416 422.675 260.664C421.274 260.087 419.735 260.225 418.255 260.012C416.626 259.777 415.071 259.089 413.72 258.007C413.271 257.586 412.768 257.251 412.23 257.013C410 256.221 409.816 261.057 409.607 262.739C409.275 265.31 408.723 267.783 408.723 270.308Z" fill="#00B2FF"/>
<path d="M410.899 286.544C411.271 291.265 408.207 295.841 409.101 300.469C409.289 301.457 409.657 302.393 409.791 303.358C410.164 306.103 408.753 308.703 407.407 310.997L395.869 330.7C395.406 331.566 394.852 332.362 394.22 333.069C392.01 335.38 388.702 335.114 385.806 335.796C383.771 336.278 381.848 337.263 380.169 338.685C380.096 338.753 380.048 338.85 380.034 338.957C380.02 339.064 380.042 339.174 380.095 339.263C380.571 340.026 381.204 340.637 381.937 341.041C382.669 341.445 383.477 341.628 384.287 341.574C384.59 342.042 384.287 342.73 383.869 343.053C383.248 343.556 382.379 343.689 382.275 344.914C382.231 345.34 382.304 345.77 382.484 346.145C382.952 346.97 383.676 347.554 384.505 347.774C388.479 349.195 392.815 346.699 395.805 343.302C398.795 339.904 400.94 335.617 403.881 332.156C405.505 330.244 407.357 328.603 409.021 326.748C412.364 323.05 414.957 318.549 417.465 314.036C418.284 312.727 418.902 311.263 419.293 309.708C419.601 308.171 419.461 306.548 419.819 305.022C420.286 303.029 421.543 301.434 422.586 299.764C424.637 296.482 426.003 292.473 425.73 288.428C425.456 284.383 423.311 280.402 420.033 279.027C419.017 278.553 417.897 278.474 416.839 278.802C415.498 279.281 414.505 280.576 413.586 281.812L411.395 284.753C410.849 285.403 410.417 286.17 410.124 287.012C409.982 287.435 409.949 287.896 410.028 288.34C410.107 288.785 410.296 289.192 410.571 289.514" fill="#FBBEBE"/>
<path d="M416.74 267.148C415.22 267.252 413.551 267.425 412.478 268.684C412.031 269.263 411.669 269.923 411.405 270.637C410.367 273.105 409.354 275.682 409.279 278.426C409.215 280.622 409.776 282.766 410.049 284.938C410.288 286.741 409.682 288.578 409.553 290.404C411.435 289.734 413.918 288.821 415.627 287.688C416.746 286.836 417.936 286.116 419.178 285.539C420.991 284.84 424.036 286.042 425.744 287.03C425.839 285.62 424.935 283.176 425.029 281.766C425.044 281.176 425.135 280.592 425.297 280.033C425.555 279.44 425.859 278.877 426.206 278.351C426.865 277.111 427.169 275.659 427.073 274.206C426.978 272.752 426.488 271.371 425.675 270.262C424.15 268.263 421.756 267.512 419.476 267.205C418.039 267.01 416.591 266.95 415.145 267.026" fill="#00B2FF"/>
<path d="M191.719 226.724L181.924 210.199C181.924 210.199 181.74 206.108 181.1 205.155C180.459 204.202 180.961 202.075 180.961 202.075C180.961 202.075 181.651 200.92 181.055 200.798C180.459 200.677 180.961 198.088 180.961 198.088L180.916 193.946C180.916 193.946 181.467 189.959 181.01 189.005C180.875 188.747 180.808 188.448 180.816 188.145C180.824 187.843 180.907 187.549 181.055 187.301C181.055 187.301 181.601 185.018 181.055 184.412C180.509 183.805 180.643 180.269 180.777 177.449C180.911 174.63 179.818 173.041 179.818 172.619C179.818 172.197 176.202 168.048 176.202 167.673C176.202 167.297 173.913 165.76 172.537 165.362C171.161 164.963 170.481 164.616 170.525 164.402C170.57 164.189 168.375 163.345 168.375 163.345C168.375 163.345 166.452 163.183 165.717 162.068C164.982 160.953 162.737 160.629 162.683 160.618L162.638 160.398C162.638 160.317 162.613 160.236 162.598 160.156C162.78 159.819 162.945 159.472 163.095 159.116L163.224 158.792C164.028 158.798 164.815 158.513 165.474 157.977C165.799 157.664 166.064 157.276 166.253 156.837C166.442 156.399 166.55 155.919 166.572 155.429C166.611 154.447 166.426 153.47 166.035 152.598C165.633 151.645 165.042 150.651 165.251 149.611C165.34 149.166 165.568 148.773 165.688 148.334C165.866 147.476 165.748 146.572 165.36 145.814C165.012 145.046 164.53 144.364 164.143 143.619C163.652 142.665 163.323 141.609 163.174 140.51C163.147 139.926 163.027 139.352 162.822 138.817C162.614 138.441 162.34 138.12 162.017 137.875C160.584 136.686 158.855 136.077 157.095 136.142C155.848 136.188 154.612 136.581 153.37 136.402C152.63 136.254 151.902 136.034 151.194 135.743C149.66 135.212 147.887 134.998 146.551 136.021C145.214 137.043 144.683 139.054 143.774 140.643C142.974 142.03 141.787 143.197 141.191 144.688C141.191 144.688 141.191 144.63 141.191 144.607C141.041 144.946 140.926 145.305 140.849 145.676C140.678 146.853 140.748 148.06 141.052 149.2C141.119 149.814 141.384 150.376 141.792 150.772C142.244 151.113 142.865 151.032 143.392 151.142L143.332 151.442C142.796 154.429 143.245 157.541 144.589 160.161C145.933 162.781 148.074 164.718 150.589 165.587C150.589 165.697 150.589 165.801 150.589 165.911C150.587 166.216 150.571 166.521 150.539 166.823C150.539 166.823 145.935 165.72 144.698 166.465C143.461 167.211 141.037 167.794 140.67 168.199C140.302 168.603 139.388 168.308 138.564 170.805C137.739 173.301 137.65 175.849 136.577 177.022C135.504 178.195 134.978 178.986 134.928 179.836C134.879 180.685 135.067 180.899 134.655 181.165C134.243 181.43 133.662 182.545 133.831 182.973C133.894 183.265 133.88 183.573 133.792 183.856C133.703 184.139 133.544 184.385 133.334 184.562C133.117 184.74 132.943 184.98 132.831 185.26C132.718 185.54 132.671 185.849 132.693 186.157C132.693 186.157 132.415 187.312 131.774 187.595C131.134 187.879 130.721 189.612 130.721 189.612L128.645 192.385L124.533 187.093C124.224 186.697 123.793 186.46 123.334 186.433C122.875 186.406 122.426 186.591 122.084 186.948L120.063 189.063C119.284 189.283 118.579 189.77 118.041 190.461C117.603 190.99 117.248 191.604 116.993 192.276L115.89 193.431C115.542 193.933 115.329 194.544 115.278 195.186C115.226 195.829 115.339 196.475 115.602 197.043L118.24 200.434V200.463C117.305 200.559 116.418 200.98 115.692 201.671C111.758 205.715 111.718 209.431 112.304 211.129C112.89 212.828 117.887 219.363 117.887 219.363C117.887 219.363 120.788 223.749 124.975 226.077L124.945 226.118C124.859 226.222 124.777 226.332 124.702 226.447L124.632 226.551L124.567 226.655L124.493 226.782C124.473 226.815 124.455 226.85 124.438 226.886L124.359 227.036C124.34 227.07 124.324 227.104 124.309 227.14C124.274 227.21 124.245 227.279 124.215 227.348C124.204 227.371 124.194 227.394 124.185 227.418C124.145 227.51 124.106 227.603 124.071 227.707L124.031 227.811C124.006 227.88 123.986 227.949 123.962 228.024C123.946 228.07 123.933 228.116 123.922 228.163L123.862 228.371C123.846 228.42 123.833 228.47 123.822 228.521C123.822 228.596 123.783 228.672 123.768 228.752C123.753 228.833 123.743 228.845 123.733 228.897C123.723 228.949 123.683 229.145 123.663 229.278C123.663 229.324 123.663 229.376 123.639 229.428C123.614 229.48 123.614 229.608 123.599 229.7C123.584 229.792 123.599 229.827 123.599 229.896L123.569 230.156V230.364C123.569 230.463 123.569 230.561 123.544 230.665C123.519 230.769 123.544 230.786 123.544 230.85C123.544 231.017 123.544 231.185 123.544 231.364C123.455 237.581 123.768 238.483 123.768 238.483C123.972 239.057 124.305 239.557 124.733 239.93C125.16 240.303 125.666 240.535 126.197 240.603C126.457 240.627 126.719 240.611 126.976 240.557C129.36 240.077 134.923 238.962 136.91 239.401C138.097 239.656 140.287 239.274 141.847 238.933L142.259 238.841L142.542 239.898L143.446 239.609L144.216 240.124L144.713 240.453C145.617 244.012 149.282 242.799 149.282 242.799L150.151 243.377L158.987 243.642C159.979 244.338 161.027 244.918 162.116 245.376C162.26 245.43 162.408 245.469 162.559 245.491C163.385 245.57 164.214 245.587 165.042 245.543C165.717 245.543 166.239 245.491 166.239 245.491C166.239 245.491 166.15 242.701 166.02 239.575C168.759 239.496 171.492 239.235 174.206 238.795C178.924 237.835 180.891 232.843 181.616 230.174C181.833 231.264 181.987 232.37 182.078 233.485C182.271 234.465 182.516 235.429 182.813 236.374C183.066 237.128 183.4 237.843 183.807 238.5C187.283 237.119 185.177 235.033 184.447 234.143C183.717 233.254 184.944 232.497 184.944 232.497C184.944 232.497 185.907 231.751 185.813 231.064C185.719 230.376 185.674 229.631 188.793 229.683C191.912 229.735 191.719 226.724 191.719 226.724ZM143.382 192.801C143.421 193.102 143.878 196.378 144.246 197.239C144.356 197.807 144.391 198.392 144.35 198.972C142.508 198.799 140.585 198.707 140.585 198.707C140.639 198.785 140.674 198.879 140.685 198.978L140.392 198.903L139.974 198.788L143.372 192.773L143.382 192.801ZM136.647 205.259L139.84 205.837L140.109 205.883C140.018 206.455 139.963 207.035 139.945 207.616C139.945 207.674 140.014 207.738 140.119 207.813C140.074 208.105 140.054 208.401 140.059 208.697C140.109 208.986 141.599 209.621 143.312 210.147C143.287 210.257 143.267 210.361 143.243 210.453C141.728 209.529 139.349 209.096 139.075 208.408C138.802 207.72 130.696 204.427 130.696 204.427L129.892 203.959L132.023 204.427L132.609 204.358C133.936 204.76 135.285 205.061 136.647 205.259Z" fill="url(#paint0_linear_6_241)"/>
<path d="M181.298 229.035C181.298 229.035 180.032 237.957 173.59 239.274C167.148 240.592 145.642 240.332 145.642 240.332C145.642 240.332 133.344 238.269 128.898 226.187C124.453 214.105 121.592 209.292 125.422 209.084C129.251 208.876 149.789 217.173 150.966 217.266C152.143 217.358 182.436 198.897 181.298 229.035Z" fill="#65617D"/>
<path opacity="0.05" d="M181.298 229.035C181.298 229.035 180.032 237.957 173.59 239.274C167.148 240.592 145.642 240.332 145.642 240.332C145.642 240.332 133.344 238.269 128.898 226.187C124.453 214.105 121.592 209.292 125.422 209.084C129.251 208.876 149.789 217.173 150.966 217.266C152.143 217.358 182.436 198.897 181.298 229.035Z" fill="black"/>
<path d="M123.629 238.968C123.828 239.539 124.157 240.037 124.581 240.408C125.004 240.78 125.506 241.011 126.033 241.077C126.293 241.096 126.555 241.078 126.812 241.025C129.172 240.551 134.705 239.442 136.657 239.869C137.829 240.118 139.999 239.742 141.544 239.407C142.572 239.182 143.327 238.968 143.327 238.968C143.327 238.968 141.509 231.948 141.286 231.74C141.062 231.532 133.115 225.962 133.115 225.962L126.827 225.436C125.981 225.583 125.216 226.105 124.692 226.892C124.031 227.828 123.46 229.359 123.42 231.873C123.316 238.061 123.629 238.968 123.629 238.968Z" fill="#3F3D56"/>
<path opacity="0.05" d="M123.629 238.968C123.828 239.539 124.157 240.037 124.581 240.408C125.004 240.78 125.506 241.011 126.033 241.077C125.417 240.152 124.846 239.188 124.324 238.188L124.359 233.069C124.234 231.664 124.393 230.246 124.825 228.926C125.256 227.607 125.947 226.423 126.842 225.47C126.842 225.47 123.529 225.73 123.435 231.907C123.341 238.084 123.629 238.968 123.629 238.968Z" fill="black"/>
<path opacity="0.1" d="M150.901 227.77L156.757 222.437L165.966 211.881L163.482 211.748C163.11 212.025 162.067 212.903 162.027 213.955C161.982 215.243 159.544 214.047 158.267 214.781C156.991 215.515 150.782 224.777 149.695 224.714C148.607 224.65 147.743 224.072 147.286 224.974L147.256 225.031L150.901 227.77Z" fill="black"/>
<path opacity="0.1" d="M124.677 226.903C124.885 227.019 125.099 227.135 125.312 227.239C129.758 229.457 135.246 234.103 135.658 234.947C135.907 235.461 139.09 237.708 141.544 239.396C142.572 239.17 143.327 238.956 143.327 238.956C143.327 238.956 141.509 231.936 141.286 231.728C141.062 231.52 133.115 225.95 133.115 225.95L126.827 225.424C125.972 225.573 125.201 226.104 124.677 226.903Z" fill="black"/>
<path d="M112.339 211.777C112.925 213.464 117.872 219.958 117.872 219.958C117.872 219.958 121.001 224.708 125.452 226.892C129.902 229.076 135.385 233.756 135.792 234.6C136.056 235.143 139.602 237.627 142.095 239.332L142.657 239.713L143.893 240.551L144.549 240.984C144.549 240.984 146.069 239.569 147.584 238.142C149.098 236.715 150.564 235.316 150.564 235.253C150.564 235.189 151.199 233.3 151.06 233.196C150.921 233.092 150.678 232.41 150.102 231.56C149.494 230.619 148.702 229.858 147.792 229.342C146.476 228.555 145.426 227.274 144.812 225.707C144.812 225.707 144.613 225.54 144.315 225.314C143.698 224.821 143.008 224.462 142.279 224.257C141.286 224.113 139.418 221.738 139.418 221.738C138.692 221.188 138.086 220.448 137.65 219.577C137.153 218.421 130.135 212.793 129.485 212.273L146.541 225.02L150.623 228.071L156.479 222.743L165.688 212.187L162.648 212.025C158.178 211.8 150.231 211.447 149.238 211.713C148.424 211.931 147.585 211.995 146.754 211.904C146.754 211.904 144.489 212.019 142.989 211.1C141.489 210.182 139.13 209.748 138.857 209.067C138.584 208.385 130.557 205.114 130.557 205.114C130.557 205.114 119.63 198.36 115.722 202.37C111.813 206.38 111.748 210.078 112.339 211.777Z" fill="#65617D"/>
<path d="M147.589 173.035L148.994 178.472L150.812 190.716L157.482 191.241L159.39 187.544L161.317 183.822C161.317 183.822 162.519 178.876 163.383 174.092C164.143 169.857 164.645 165.743 163.815 165.298C163.075 164.905 162.593 163.478 162.275 161.941C162.236 161.756 162.201 161.56 162.171 161.363C161.949 160.064 161.799 158.75 161.724 157.428C161.724 157.428 147.752 156.585 149.704 163.287C150.053 164.432 150.231 165.638 150.231 166.852C150.231 167.164 150.231 167.471 150.181 167.76C150.084 168.799 149.804 169.804 149.358 170.712C148.912 171.62 148.309 172.41 147.589 173.035Z" fill="#EE8E9E"/>
<path d="M144.688 172.139L145.185 181.384L146.317 189.248L147.589 192.894L148.726 212.817C148.726 212.817 159.653 214.29 162.325 212.788C162.522 212.7 162.694 212.55 162.822 212.354C166.035 206.709 164.982 190.357 164.982 190.357L166.204 179.801L165.39 174.323L163.403 174.081L161.883 173.89C161.883 173.89 161.54 174.381 161.044 175.144C159.698 177.207 157.224 181.274 157.393 182.967C157.617 185.278 157.12 187.665 156.345 188.035C155.57 188.404 154.939 189.04 154.805 188.404C154.612 187.872 154.564 187.283 154.666 186.717C154.805 185.816 154.075 183.071 154.075 183.071C154.075 183.071 152.853 179.853 152.943 178.483C153.032 177.114 152.809 175.525 152.446 175.155C152.083 174.786 151.582 174.416 151.989 172.729C152.396 171.041 150.201 167.754 150.201 167.754L144.688 172.139Z" fill="#E3E8F4"/>
<path opacity="0.1" d="M159.136 195.205L159.593 210.985L162.211 212.678C162.407 212.586 162.579 212.435 162.707 212.239C165.921 206.594 164.868 190.242 164.868 190.242L166.095 179.685L165.275 174.208L163.289 173.965C164.053 169.73 164.55 165.622 163.721 165.171C162.981 164.778 162.499 163.351 162.186 161.82L160.77 172.983C160.77 172.983 160.89 173.988 160.929 175.028C160.988 175.686 160.95 176.35 160.815 176.993C160.632 177.857 160.601 178.755 160.726 179.633C159.906 181.309 159.499 184.418 159.3 187.416C159.032 191.403 159.136 195.205 159.136 195.205Z" fill="black"/>
<path d="M162.226 161.542C162.226 161.542 164.515 161.872 165.241 162.981C165.966 164.09 167.873 164.252 167.873 164.252C167.873 164.252 170.048 165.096 170.004 165.304C169.959 165.512 170.639 165.835 171.99 166.257C173.341 166.679 175.621 168.21 175.621 168.568C175.621 168.927 179.202 173.052 179.202 173.474C179.202 173.896 180.29 175.479 180.156 178.276C180.022 181.072 179.883 184.631 180.429 185.209C180.975 185.787 180.429 188.058 180.429 188.058C180.282 188.305 180.2 188.596 180.192 188.897C180.184 189.197 180.251 189.494 180.384 189.751C180.836 190.698 180.29 194.656 180.29 194.656L180.34 198.776C180.34 198.776 179.843 201.359 180.429 201.469C181.015 201.578 180.34 202.734 180.34 202.734C180.34 202.734 179.843 204.843 180.474 205.796C181.105 206.75 181.288 210.806 181.288 210.806L190.998 227.221C190.998 227.221 191.137 230.232 188.053 230.18C184.969 230.128 185.008 230.867 185.103 231.549C185.197 232.231 184.239 232.976 184.239 232.976C184.239 232.976 183.017 233.716 183.742 234.611C184.467 235.507 186.553 237.57 183.106 238.939C182.7 238.288 182.366 237.579 182.113 236.83C181.821 235.899 181.578 234.948 181.388 233.982C181.388 233.982 181.07 229.966 180.434 229.44C179.798 228.914 179.888 226.378 179.888 226.378C179.888 226.378 180.797 224.321 179.525 223.489C178.254 222.657 159.837 210.777 159.837 210.777L159.39 194.991C159.39 194.991 159.072 183.326 160.979 179.42C160.855 178.541 160.885 177.643 161.068 176.779C161.386 175.831 161.024 172.769 161.024 172.769L162.226 161.542Z" fill="#3F3D56"/>
<path opacity="0.1" d="M150.335 167.898C150.335 167.898 145.776 166.806 144.549 167.546C143.322 168.285 140.923 168.863 140.575 169.279C140.228 169.695 139.309 169.389 138.489 171.868C137.67 174.346 137.585 176.883 136.537 178.044C135.489 179.206 134.953 179.997 134.908 180.841C134.864 181.685 135.042 181.898 134.635 182.158C134.228 182.418 133.642 183.533 133.816 183.955C133.989 184.377 143.253 193.668 143.253 193.668C143.253 193.668 143.709 197.204 144.117 198.1C144.524 198.996 143.665 211.349 142.756 212.193C141.847 213.036 148.86 212.967 148.86 212.967C148.86 212.967 149.178 204.878 149.451 204.438C149.724 203.999 149.267 195.361 149.267 195.361C149.267 195.361 149.223 187.971 149.814 186.018C150.405 184.065 150.31 177.571 150.31 177.571C150.31 177.571 150.832 173.676 151.468 172.769C152.103 171.862 150.335 167.898 150.335 167.898Z" fill="black"/>
<path d="M150.201 167.742C150.201 167.742 145.642 166.65 144.415 167.384C143.188 168.118 140.784 168.707 140.441 169.117C140.099 169.528 139.17 169.221 138.355 171.706C137.541 174.19 137.446 176.715 136.403 177.877C135.36 179.038 134.814 179.83 134.769 180.673C134.725 181.517 134.908 181.731 134.496 181.997C134.084 182.262 133.503 183.366 133.682 183.788C133.86 184.21 143.118 193.501 143.118 193.501C143.118 193.501 143.57 197.037 143.983 197.932C144.395 198.828 143.526 211.181 142.617 212.025C141.708 212.869 148.746 212.793 148.746 212.793C148.746 212.793 149.064 204.704 149.332 204.271C149.6 203.837 149.153 195.188 149.153 195.188C149.153 195.188 149.108 187.803 149.699 185.85C150.291 183.897 150.221 177.403 150.221 177.403C150.221 177.403 150.742 173.509 151.378 172.601C152.014 171.694 150.201 167.742 150.201 167.742Z" fill="#3F3D56"/>
<path opacity="0.1" d="M149.724 163.276C150.073 164.421 150.251 165.626 150.251 166.841C152.479 167.6 154.862 167.473 157.021 166.478C159.181 165.484 160.993 163.68 162.171 161.352C161.949 160.053 161.799 158.738 161.724 157.417C161.724 157.417 147.772 156.567 149.724 163.276Z" fill="black"/>
<path d="M142.825 154.932C142.824 158.03 143.844 161.011 145.676 163.259C147.507 165.508 150.011 166.853 152.67 167.017C155.329 167.181 157.941 166.152 159.967 164.141C161.993 162.131 163.279 159.293 163.559 156.212C163.839 153.131 163.092 150.043 161.472 147.584C159.852 145.125 157.483 143.483 154.853 142.997C152.224 142.51 149.534 143.216 147.338 144.97C145.143 146.723 143.609 149.389 143.054 152.419C142.902 153.245 142.825 154.087 142.825 154.932Z" fill="#EE8E9E"/>
<path d="M136.155 182.921L133.672 183.817C133.735 184.108 133.722 184.415 133.633 184.697C133.544 184.98 133.385 185.224 133.175 185.4C132.959 185.575 132.787 185.814 132.676 186.092C132.565 186.37 132.52 186.678 132.544 186.983C132.544 186.983 132.271 188.139 131.635 188.41C130.999 188.682 130.592 190.415 130.592 190.415L128.506 193.212C128.506 193.212 127.731 193.951 127.87 194.321C128.009 194.691 127.051 194.795 127.051 194.795L127.548 204.19L131.859 205.143L134.536 204.826L136.711 203.878L138.619 202.555L139.478 199.972L143.292 193.212L136.155 182.921Z" fill="#3F3D56"/>
<path d="M127.672 195.517C127.672 195.517 122.139 186.232 118.006 191.241C113.874 196.251 119.685 204.386 121.046 204.121C122.407 203.855 128.898 203.433 128.898 203.433L127.672 195.517Z" fill="#EE8E9E"/>
<path d="M140.707 191.502L116.265 176.989C115.889 176.766 115.428 176.94 115.236 177.377L105.705 199.1C105.513 199.538 105.662 200.074 106.038 200.297L130.48 214.81C130.857 215.034 131.317 214.86 131.509 214.422L141.04 192.699C141.232 192.261 141.083 191.726 140.707 191.502Z" fill="#3F3D56"/>
<path d="M138.433 192.792L116.743 179.913L108.4 198.93L130.09 211.809L138.433 192.792Z" fill="#00B2FF"/>
<path d="M111.738 189.381C111.958 189.381 112.136 189.174 112.136 188.919C112.136 188.663 111.958 188.456 111.738 188.456C111.519 188.456 111.341 188.663 111.341 188.919C111.341 189.174 111.519 189.381 111.738 189.381Z" fill="#E6E8EC"/>
<path d="M135.216 203.681C135.581 203.681 135.877 203.337 135.877 202.913C135.877 202.489 135.581 202.145 135.216 202.145C134.851 202.145 134.556 202.489 134.556 202.913C134.556 203.337 134.851 203.681 135.216 203.681Z" fill="#E6E8EC"/>
<path d="M124.091 197.47C124.041 204.438 136.428 205.918 136.428 205.918L139.592 206.495L141.013 206.755L141.604 199.949C141.604 199.949 140.953 199.833 140.143 199.614C138.941 199.29 137.387 198.73 137.064 197.938C136.542 196.627 124.125 190.502 124.091 197.47Z" fill="#EE8E9E"/>
<path opacity="0.1" d="M143.054 152.419C143.339 152.443 143.607 152.582 143.814 152.812C144.162 153.245 144.181 154.013 144.638 154.279C144.809 154.363 144.997 154.387 145.18 154.349C146.387 154.152 147.082 152.569 148.244 152.13C148.92 151.928 149.634 151.999 150.271 152.332C150.529 152.43 150.762 152.603 150.946 152.835C151.334 153.413 151.06 154.279 151.239 154.984C151.488 155.966 152.496 156.354 153.365 156.481C154.234 156.608 155.218 156.683 155.799 157.446C155.991 157.732 156.129 158.062 156.204 158.414C156.278 158.767 156.287 159.134 156.231 159.491C156.179 159.74 156.179 159.999 156.231 160.248C156.469 161.04 157.646 160.918 157.954 160.294C158.183 159.838 158.113 159.462 158.645 159.335C159.024 159.3 159.405 159.377 159.752 159.56C160.677 159.93 161.651 160.104 162.628 160.075C163.25 158.532 163.584 156.855 163.609 155.151C163.635 153.448 163.35 151.758 162.775 150.192C162.199 148.625 161.345 147.218 160.27 146.063C159.194 144.907 157.92 144.029 156.532 143.486C155.144 142.943 153.674 142.747 152.216 142.912C150.759 143.077 149.348 143.598 148.076 144.441C146.803 145.285 145.699 146.431 144.834 147.806C143.97 149.181 143.365 150.753 143.059 152.419H143.054Z" fill="black"/>
<path d="M156.226 159.93C156.174 159.682 156.174 159.422 156.226 159.173C156.283 158.817 156.273 158.451 156.199 158.099C156.124 157.748 155.986 157.418 155.794 157.134C155.213 156.365 154.234 156.296 153.36 156.163C152.486 156.03 151.483 155.649 151.234 154.666C151.055 153.962 151.329 153.101 150.941 152.523C150.76 152.287 150.526 152.113 150.266 152.02C149.63 151.686 148.915 151.612 148.239 151.812C147.077 152.251 146.382 153.834 145.175 154.031C144.992 154.072 144.804 154.048 144.633 153.962C144.176 153.696 144.137 152.927 143.809 152.494C143.257 151.818 142.209 152.257 141.539 151.754C141.132 151.359 140.87 150.8 140.804 150.188C140.504 149.055 140.435 147.856 140.605 146.687C140.998 144.728 142.508 143.382 143.466 141.701C144.365 140.14 144.872 138.164 146.218 137.13C147.564 136.096 149.297 136.327 150.822 136.853C151.523 137.144 152.244 137.364 152.978 137.511C154.204 137.685 155.436 137.298 156.668 137.251C158.414 137.186 160.129 137.795 161.545 138.985C161.865 139.227 162.136 139.546 162.34 139.921C162.545 140.452 162.666 141.021 162.698 141.602C162.843 142.693 163.168 143.741 163.656 144.688C164.034 145.433 164.515 146.103 164.858 146.872C165.241 147.625 165.359 148.522 165.186 149.374C165.067 149.807 164.838 150.2 164.749 150.645C164.55 151.673 165.131 152.661 165.529 153.609C165.915 154.476 166.099 155.447 166.06 156.423C166.039 156.909 165.931 157.385 165.744 157.821C165.557 158.256 165.294 158.642 164.972 158.954C164.298 159.498 163.494 159.783 162.673 159.768C161.677 159.804 160.685 159.629 159.742 159.254C159.395 159.074 159.014 158.997 158.635 159.029C158.103 159.156 158.173 159.532 157.944 159.988C157.641 160.6 156.469 160.722 156.226 159.93Z" fill="#3F3D56"/>
<path opacity="0.1" d="M150.628 228.082L156.484 222.755L165.693 212.198L162.653 212.037C162.296 212.412 162.068 212.925 162.012 213.481C161.967 214.77 159.529 213.568 158.252 214.307C156.976 215.047 150.767 224.303 149.68 224.24C148.592 224.176 147.728 223.598 147.271 224.494L147.241 224.552C147.06 224.795 146.816 224.963 146.546 225.031L150.628 228.082Z" fill="black"/>
<path d="M138.832 227.712L141.772 238.639L142.234 240.372L143.635 239.927L146.724 238.939L160.472 234.548C162.204 234.46 163.899 233.936 165.439 233.011C168.038 231.317 171.013 230.562 173.982 230.844C175.8 231.04 177.821 230.128 179.5 226.522C179.5 226.522 183.31 213.435 173.694 209.685C164.078 205.935 163.616 211.678 163.616 211.678L163.482 211.771C163.11 212.048 162.067 212.926 162.027 213.978C161.982 215.266 159.544 214.07 158.267 214.804C156.991 215.538 150.782 224.8 149.695 224.737C148.607 224.673 147.743 224.095 147.286 224.997L147.256 225.054C146.918 225.592 145.91 225.719 145.239 225.736C145.031 225.749 144.822 225.749 144.613 225.736L144.524 225.765L143.829 226.008L138.832 227.712Z" fill="#65617D"/>
<path opacity="0.1" d="M139.592 206.501L141.013 206.761L141.604 199.955C141.604 199.955 140.953 199.839 140.143 199.62C140.357 200.573 139.87 204.242 139.592 206.501Z" fill="black"/>
<path opacity="0.1" d="M176.694 174.687C176.694 174.687 180.911 173.26 179.868 187.197C179.144 195.703 176.035 203.696 171.022 209.945C171.022 209.945 162.037 214.533 157.999 213.793C153.961 213.054 151.016 212.898 151.016 212.898C149.743 212.15 148.351 211.719 146.928 211.632C144.663 211.528 139.9 209.899 139.806 209.361C139.711 208.824 140.988 201.076 140.441 200.498C140.441 200.498 146.794 200.798 147.43 201.33C148.065 201.861 148.974 201.486 149.655 201.33C150.335 201.174 152.421 199.071 156.549 200.92C156.549 200.92 157.954 201.076 158.501 200.654C158.946 200.412 159.453 200.375 159.921 200.55C160.274 200.413 160.609 200.219 160.914 199.972C161.049 199.764 162.141 199.972 162.141 199.972C162.206 200.006 162.277 200.023 162.348 200.022C162.419 200.022 162.49 200.003 162.554 199.968C162.619 199.933 162.676 199.882 162.722 199.819C162.768 199.756 162.802 199.682 162.822 199.602C162.965 199.172 163.181 198.779 163.457 198.447C163.457 198.447 164.679 190.427 166.994 187.416C167.179 187.228 167.321 186.99 167.407 186.723C167.494 186.456 167.523 186.168 167.491 185.885C167.302 185.03 171.25 172.994 176.694 174.687Z" fill="black"/>
<path d="M176.58 173.613C176.58 173.613 180.802 172.191 179.759 186.122C179.036 194.629 175.928 202.623 170.913 208.87C170.913 208.87 161.928 213.464 157.89 212.724C153.852 211.984 150.901 211.811 150.901 211.811C149.631 211.063 148.24 210.632 146.819 210.546C144.549 210.436 139.786 208.812 139.696 208.275C139.607 207.738 140.873 199.989 140.332 199.406C140.332 199.406 146.685 199.712 147.32 200.244C147.956 200.775 148.86 200.394 149.541 200.244C150.221 200.093 152.307 197.984 156.439 199.828C156.439 199.828 157.845 199.989 158.386 199.567C158.832 199.328 159.338 199.289 159.807 199.458C160.159 199.318 160.493 199.124 160.8 198.88C160.934 198.666 162.022 198.88 162.022 198.88C162.087 198.914 162.158 198.931 162.229 198.93C162.3 198.929 162.37 198.911 162.435 198.876C162.499 198.841 162.557 198.79 162.603 198.727C162.649 198.664 162.683 198.59 162.703 198.51C162.846 198.079 163.062 197.687 163.338 197.355C163.338 197.355 164.565 189.335 166.88 186.324C167.064 186.136 167.206 185.898 167.293 185.631C167.38 185.364 167.408 185.076 167.376 184.793C167.193 183.961 171.136 171.943 176.58 173.613Z" fill="#3F3D56"/>
<path opacity="0.1" d="M143.814 225.979L149.804 234.415L149.843 234.369C149.888 234.207 150.479 232.416 150.34 232.306C150.201 232.196 149.163 229.561 147.077 228.452C146.016 227.85 145.125 226.908 144.509 225.736L143.814 225.979Z" fill="black"/>
<path opacity="0.1" d="M143.893 240.58L144.549 241.013C144.549 241.013 146.069 239.598 147.584 238.171C149.098 236.743 150.564 235.345 150.564 235.282C150.564 235.218 151.199 233.329 151.06 233.225C150.921 233.121 150.678 232.439 150.102 231.589C146.039 230.266 148.612 233.548 148.969 233.698C148.969 233.698 144.027 232.375 143.754 238.644C143.731 239.294 143.777 239.944 143.893 240.58Z" fill="black"/>
<path d="M148.905 243.232L149.769 243.81L158.525 244.07C159.507 244.764 160.545 245.345 161.625 245.803C161.768 245.853 161.914 245.89 162.062 245.913C162.875 245.99 163.691 246.008 164.505 245.965C165.176 245.965 165.693 245.913 165.693 245.913C165.693 245.913 165.28 233.069 164.967 231.717C164.818 231.069 164.083 231.208 163.358 231.532C162.815 231.79 162.29 232.1 161.789 232.456C161.789 232.456 158.073 232.878 157.482 233.248C156.891 233.617 155.213 233.034 154.17 233.248C153.127 233.461 151.264 231.821 151.264 231.821C146.183 229.868 149.044 233.508 149.406 233.669C149.406 233.669 144.44 232.346 144.186 238.615C143.933 244.885 148.905 243.232 148.905 243.232Z" fill="#3F3D56"/>
<path d="M161.565 238.275C161.66 240.933 163.443 244.232 164.505 245.977C165.176 245.977 165.693 245.925 165.693 245.925C165.693 245.925 165.28 233.08 164.967 231.728C164.818 231.081 164.083 231.22 163.358 231.543C162.479 233.462 161.486 236.125 161.565 238.275Z" fill="#565387"/>
<path opacity="0.1" d="M161.565 238.275C161.66 240.933 163.443 244.232 164.505 245.977C165.176 245.977 165.693 245.925 165.693 245.925C165.693 245.925 165.28 233.08 164.967 231.728C164.818 231.081 164.083 231.22 163.358 231.543C162.479 233.462 161.486 236.125 161.565 238.275Z" fill="black"/>
<path opacity="0.05" d="M160.065 238.627C160.671 241.193 160.661 244.07 161.625 245.815C161.768 245.865 161.914 245.901 162.062 245.925C162.875 246.002 163.691 246.019 164.505 245.977C165.176 245.977 165.693 245.925 165.693 245.925C165.693 245.925 165.28 233.08 164.967 231.728C164.818 231.081 164.083 231.22 163.358 231.543C162.815 231.802 162.29 232.111 161.789 232.468C161.789 232.468 159.295 235.339 160.065 238.627Z" fill="black"/>
<path opacity="0.1" d="M129.857 212.585C129.857 212.585 134.208 214.226 137.893 220.062L129.857 212.585Z" fill="black"/>
<g opacity="0.1">
<path d="M165.201 149.247C165.201 149.287 165.201 149.322 165.177 149.362C165.135 149.513 165.083 149.66 165.022 149.801C165.07 149.612 165.13 149.426 165.201 149.247Z" fill="black"/>
<path d="M140.595 146.687C140.669 146.317 140.783 145.96 140.933 145.624C140.933 145.71 140.883 145.803 140.864 145.895C140.698 147.065 140.768 148.264 141.067 149.397C141.133 150.007 141.394 150.566 141.797 150.963C142.473 151.465 143.521 151.026 144.072 151.702C144.42 152.136 144.44 152.904 144.897 153.17C145.067 153.256 145.256 153.281 145.438 153.239C146.645 153.043 147.34 151.46 148.502 151.02C149.178 150.818 149.894 150.891 150.529 151.228C150.789 151.321 151.023 151.495 151.204 151.731C151.592 152.309 151.319 153.17 151.497 153.875C151.746 154.857 152.754 155.244 153.623 155.371C154.492 155.498 155.476 155.574 156.057 156.342C156.249 156.627 156.388 156.956 156.462 157.308C156.537 157.659 156.546 158.026 156.489 158.382C156.437 158.63 156.437 158.89 156.489 159.139C156.727 159.93 157.905 159.809 158.213 159.185C158.441 158.728 158.371 158.353 158.903 158.226C159.282 158.193 159.663 158.271 160.011 158.451C160.953 158.826 161.945 159.001 162.941 158.965C163.762 158.98 164.566 158.695 165.241 158.151C165.535 157.881 165.776 157.54 165.946 157.151C165.793 157.859 165.443 158.488 164.953 158.942C164.278 159.487 163.474 159.771 162.653 159.757C161.657 159.792 160.665 159.618 159.722 159.243C159.375 159.062 158.994 158.985 158.615 159.017C158.083 159.144 158.153 159.52 157.929 159.976C157.617 160.6 156.439 160.722 156.201 159.93C156.151 159.681 156.151 159.422 156.201 159.173C156.258 158.817 156.249 158.451 156.174 158.099C156.1 157.748 155.961 157.418 155.769 157.134C155.188 156.365 154.209 156.296 153.335 156.163C152.461 156.03 151.458 155.649 151.209 154.666C151.031 153.961 151.304 153.101 150.916 152.523C150.736 152.287 150.504 152.114 150.246 152.02C149.608 151.686 148.892 151.612 148.214 151.812C147.057 152.251 146.357 153.834 145.15 154.031C144.968 154.072 144.779 154.048 144.608 153.961C144.152 153.696 144.112 152.927 143.784 152.494C143.233 151.818 142.19 152.257 141.514 151.754C141.108 151.359 140.845 150.8 140.779 150.188C140.484 149.054 140.421 147.855 140.595 146.687Z" fill="black"/>
</g>
<path opacity="0.1" d="M165.906 188.936C165.072 190.242 164.123 191.449 163.388 192.825C162.589 194.18 162.202 195.807 162.285 197.447C163.045 196.54 163.398 195.28 163.875 194.142C164.689 192.212 165.901 190.577 166.929 188.809C167.123 188.468 168.375 186.498 167.744 186.417C167.217 186.33 166.189 188.491 165.906 188.936Z" fill="black"/>
<path d="M170.376 312.569C170.977 314.81 171.583 317.058 172.333 319.236C173.684 323.023 175.385 326.629 177.404 329.989C178.706 332.202 180.105 334.335 181.596 336.38C183.464 338.94 185.57 341.517 186.205 344.787C186.588 346.676 186.459 348.647 186.618 350.565C186.777 352.483 187.318 354.54 188.664 355.696C189.623 356.522 190.849 356.771 192.027 356.984C192.871 357.14 193.924 357.192 194.361 356.343C194.514 355.996 194.594 355.612 194.594 355.222L194.798 352.397C194.838 351.784 195.027 351.004 195.553 350.975C196.079 350.946 196.343 351.761 196.79 352.131C197.386 352.616 198.28 352.131 198.608 351.397C198.88 350.603 198.897 349.721 198.657 348.912C198.296 347.304 197.645 345.803 196.749 344.509C195.853 343.214 194.731 342.155 193.457 341.401C192.572 340.986 191.724 340.473 190.924 339.87C190.111 339.048 189.437 338.056 188.937 336.946C184.328 328.117 179.694 319.242 176.441 309.633C175.8 307.916 175.367 306.104 175.154 304.248C174.995 302.359 175.249 300.458 175.353 298.563C175.546 295.158 175.274 291.74 174.548 288.434C174.39 287.566 174.11 286.734 173.719 285.972C172.378 283.609 169.249 283.257 167.262 284.886C166.531 285.541 165.924 286.365 165.481 287.307C165.038 288.249 164.769 289.288 164.689 290.358C164.545 292.276 165.494 294.264 165.976 296.049C167.436 301.561 168.903 307.068 170.376 312.569Z" fill="#A1616A"/>
<path opacity="0.05" d="M170.376 312.569C170.977 314.81 171.583 317.058 172.333 319.236C173.684 323.023 175.385 326.629 177.404 329.989C178.706 332.202 180.105 334.335 181.596 336.38C183.464 338.94 185.57 341.517 186.205 344.787C186.588 346.676 186.459 348.647 186.618 350.565C186.777 352.483 187.318 354.54 188.664 355.696C189.623 356.522 190.849 356.771 192.027 356.984C192.871 357.14 193.924 357.192 194.361 356.343C194.514 355.996 194.594 355.612 194.594 355.222L194.798 352.397C194.838 351.784 195.027 351.004 195.553 350.975C196.079 350.946 196.343 351.761 196.79 352.131C197.386 352.616 198.28 352.131 198.608 351.397C198.88 350.603 198.897 349.721 198.657 348.912C198.296 347.304 197.645 345.803 196.749 344.509C195.853 343.214 194.731 342.155 193.457 341.401C192.572 340.986 191.724 340.473 190.924 339.87C190.111 339.048 189.437 338.056 188.937 336.946C184.328 328.117 179.694 319.242 176.441 309.633C175.8 307.916 175.367 306.104 175.154 304.248C174.995 302.359 175.249 300.458 175.353 298.563C175.546 295.158 175.274 291.74 174.548 288.434C174.39 287.566 174.11 286.734 173.719 285.972C172.378 283.609 169.249 283.257 167.262 284.886C166.531 285.541 165.924 286.365 165.481 287.307C165.038 288.249 164.769 289.288 164.689 290.358C164.545 292.276 165.494 294.264 165.976 296.049C167.436 301.561 168.903 307.068 170.376 312.569Z" fill="black"/>
<path d="M141.42 406.97C142.318 407.334 143.274 407.468 144.221 407.363C144.291 406.462 145.334 406.259 146.108 406.306C146.483 406.291 146.855 406.391 147.186 406.595C147.38 406.739 147.529 406.947 147.718 407.097C148.054 407.312 148.432 407.425 148.815 407.427L152.848 407.819C154.646 407.999 156.519 408.16 158.203 407.415C158.538 407.291 158.836 407.059 159.062 406.745C159.519 405.982 159.062 404.89 158.431 404.335C157.8 403.781 156.986 403.532 156.35 402.966C154.949 401.724 154.756 399.401 154.016 397.54C153.49 396.367 152.841 395.275 152.084 394.287C151.535 393.439 150.896 392.676 150.181 392.017C148.562 390.659 146.704 390.688 144.802 390.491C143.461 390.352 142.2 390.26 141.236 391.647C140.044 393.38 140.521 396.847 140.595 398.869C140.688 401.59 140.964 404.299 141.42 406.97Z" fill="#514E7F"/>
<path opacity="0.05" d="M141.42 406.97C142.318 407.334 143.274 407.468 144.221 407.363C144.291 406.462 145.334 406.259 146.108 406.306C146.483 406.291 146.855 406.391 147.186 406.595C147.38 406.739 147.529 406.947 147.718 407.097C148.054 407.312 148.432 407.425 148.815 407.427L152.848 407.819C154.646 407.999 156.519 408.16 158.203 407.415C158.538 407.291 158.836 407.059 159.062 406.745C159.519 405.982 159.062 404.89 158.431 404.335C157.8 403.781 156.986 403.532 156.35 402.966C154.949 401.724 154.756 399.401 154.016 397.54C153.49 396.367 152.841 395.275 152.084 394.287C151.535 393.439 150.896 392.676 150.181 392.017C148.562 390.659 146.704 390.688 144.802 390.491C143.461 390.352 142.2 390.26 141.236 391.647C140.044 393.38 140.521 396.847 140.595 398.869C140.688 401.59 140.964 404.299 141.42 406.97Z" fill="black"/>
<path d="M143.049 315.706C141.817 316.168 141.281 317.954 141.509 319.439C141.738 320.924 142.503 322.206 143.133 323.524C144.931 327.262 145.706 331.538 147.216 335.438C148.343 338.327 149.868 341.043 150.981 343.966C152.093 346.89 152.784 350.189 152.108 353.292C151.781 354.8 151.145 356.181 150.723 357.666C150.305 359.276 150.032 360.931 149.908 362.606C149.361 368.297 149.263 374.033 149.615 379.744C149.618 380.44 149.743 381.128 149.983 381.766C150.236 382.344 150.673 382.922 150.479 383.5C150.395 383.737 150.211 383.91 150.122 384.141C149.863 384.788 150.38 385.476 150.852 385.938C150.767 386.112 150.654 386.264 150.519 386.386C150.383 386.508 150.228 386.598 150.062 386.649C150.4 386.9 150.66 387.27 150.804 387.706C150.947 388.142 150.965 388.621 150.857 389.07C150.439 389.145 150.415 389.89 150.678 390.283C150.941 390.676 151.358 390.919 151.547 391.364C151.658 391.726 151.646 392.124 151.513 392.477C151.38 392.829 151.136 393.109 150.832 393.259C150.211 393.537 149.534 393.597 148.885 393.432C147.783 393.254 146.696 392.976 145.632 392.6C145.075 392.473 144.577 392.117 144.229 391.597C143.88 391.076 143.705 390.428 143.734 389.769C143.488 387.417 143.414 385.046 143.511 382.679C143.685 371.216 143.511 359.74 143.084 348.283C142.91 343.66 141.718 339.182 140.183 334.93C139.335 332.756 138.391 330.635 137.357 328.574C135.142 323.859 133.185 318.636 133.691 313.291C133.746 312.713 133.925 312.025 134.417 311.933C134.609 311.909 134.803 311.947 134.978 312.043C135.998 312.597 136.985 313.23 137.933 313.938C139.49 315 141.246 315.607 143.049 315.706Z" fill="#464353"/>
<path opacity="0.05" d="M143.049 315.706C141.817 316.168 141.281 317.954 141.509 319.439C141.738 320.924 142.503 322.206 143.133 323.524C144.931 327.262 145.706 331.538 147.216 335.438C148.343 338.327 149.868 341.043 150.981 343.966C152.093 346.89 152.784 350.189 152.108 353.292C151.781 354.8 151.145 356.181 150.723 357.666C150.305 359.276 150.032 360.931 149.908 362.606C149.361 368.297 149.263 374.033 149.615 379.744C149.618 380.44 149.743 381.128 149.983 381.766C150.236 382.344 150.673 382.922 150.479 383.5C150.395 383.737 150.211 383.91 150.122 384.141C149.863 384.788 150.38 385.476 150.852 385.938C150.767 386.112 150.654 386.264 150.519 386.386C150.383 386.508 150.228 386.598 150.062 386.649C150.4 386.9 150.66 387.27 150.804 387.706C150.947 388.142 150.965 388.621 150.857 389.07C150.439 389.145 150.415 389.89 150.678 390.283C150.941 390.676 151.358 390.919 151.547 391.364C151.658 391.726 151.646 392.124 151.513 392.477C151.38 392.829 151.136 393.109 150.832 393.259C150.211 393.537 149.534 393.597 148.885 393.432C147.783 393.254 146.696 392.976 145.632 392.6C145.075 392.473 144.577 392.117 144.229 391.597C143.88 391.076 143.705 390.428 143.734 389.769C143.488 387.417 143.414 385.046 143.511 382.679C143.685 371.216 143.511 359.74 143.084 348.283C142.91 343.66 141.718 339.182 140.183 334.93C139.335 332.756 138.391 330.635 137.357 328.574C135.142 323.859 133.185 318.636 133.691 313.291C133.746 312.713 133.925 312.025 134.417 311.933C134.609 311.909 134.803 311.947 134.978 312.043C135.998 312.597 136.985 313.23 137.933 313.938C139.49 315 141.246 315.607 143.049 315.706Z" fill="black"/>
<path d="M126.395 301.769C125.753 301.29 125.012 301.018 124.25 300.984C123.365 301.036 122.611 301.712 121.92 302.359C121.102 303.089 120.326 303.88 119.596 304.728C118.084 306.602 117.031 308.913 116.545 311.42C116.06 313.928 116.159 316.541 116.834 318.988C117.564 321.536 118.9 323.784 120.222 325.985L122.904 330.469C126.996 337.304 131.089 344.14 135.375 350.813C135.376 350.978 135.422 351.137 135.506 351.269C135.59 351.401 135.707 351.498 135.842 351.547C135.996 351.593 136.19 351.588 136.284 351.738C136.328 351.832 136.347 351.938 136.339 352.044C136.329 352.538 136.249 353.026 136.1 353.489C136.031 353.641 136.013 353.819 136.051 353.986C136.19 354.361 136.776 354.147 136.965 354.5C137.089 354.731 136.935 355.031 136.771 355.228C136.607 355.424 136.403 355.644 136.433 355.915C136.463 356.187 136.87 356.493 136.855 356.828C136.855 357.025 136.706 357.175 136.602 357.331C136.456 357.58 136.39 357.88 136.414 358.18C136.439 358.48 136.552 358.76 136.736 358.972C137.019 362.231 135.494 365.328 135.191 368.575C134.695 373.706 136.706 378.716 136.95 383.864C136.935 384.443 137.03 385.019 137.228 385.551C137.64 386.441 138.718 386.978 138.663 387.989C138.585 388.405 138.484 388.814 138.36 389.214C138.276 389.792 138.514 390.37 138.524 390.948C138.534 391.525 138.092 392.236 137.625 392.005C137.976 393.369 138.289 394.744 138.564 396.131L147.951 397.032C148.052 396.05 148.024 395.057 147.867 394.085C147.673 393.028 147.266 392.045 147.052 391C146.913 390.485 146.874 389.941 146.938 389.406C147.001 388.872 147.166 388.36 147.42 387.908C147.175 387.912 146.937 387.814 146.748 387.634C146.559 387.453 146.431 387.2 146.387 386.92C146.308 386.357 146.316 385.782 146.411 385.222C146.66 382.373 145.632 379.565 145.661 376.705C145.691 374.451 146.372 372.285 146.714 370.072C147.45 365.334 146.685 360.197 148.498 355.869C149.595 353.263 151.115 350.374 149.883 347.849C149.277 346.601 148.204 345.746 147.504 344.567C146.933 343.453 146.505 342.248 146.233 340.991C144.787 335.791 142.448 330.96 140.397 326.014C139.827 324.774 139.405 323.451 139.14 322.079C138.995 320.876 138.942 319.659 138.981 318.445C138.981 316.264 138.867 314.086 138.638 311.921C138.592 310.973 138.359 310.05 137.958 309.223C137.553 308.597 137.047 308.07 136.468 307.669C133.389 305.213 129.723 303.809 126.395 301.769Z" fill="#464353"/>
<path d="M137.645 410.974C138.546 411.333 139.503 411.465 140.451 411.361C140.521 410.46 141.559 410.258 142.334 410.304C142.708 410.29 143.08 410.389 143.411 410.593C143.605 410.737 143.754 410.951 143.948 411.096C144.284 411.313 144.661 411.426 145.046 411.425L149.074 411.818C150.877 411.997 152.744 412.165 154.433 411.413C154.768 411.292 155.065 411.059 155.287 410.743C155.744 409.98 155.287 408.894 154.656 408.34C154.026 407.785 153.211 407.531 152.58 406.964C151.175 405.722 150.986 403.405 150.241 401.545C149.72 400.368 149.072 399.273 148.314 398.286C147.763 397.439 147.122 396.678 146.406 396.021C144.792 394.657 142.93 394.686 141.032 394.49C139.686 394.351 138.425 394.264 137.466 395.645C136.274 397.379 136.751 400.845 136.821 402.873C136.914 405.595 137.19 408.303 137.645 410.974Z" fill="#514E7F"/>
<path d="M179.252 282.858C184.387 282.858 188.55 278.015 188.55 272.041C188.55 266.068 184.387 261.225 179.252 261.225C174.117 261.225 169.954 266.068 169.954 272.041C169.954 278.015 174.117 282.858 179.252 282.858Z" fill="#A1616A"/>
<path d="M170.481 275.254C169.149 276.589 167.237 276.687 165.489 276.895C161.75 277.342 158.111 278.567 154.746 280.512C154.28 280.746 153.858 281.083 153.504 281.506C153.202 281.964 152.987 282.492 152.873 283.054C152.553 284.271 152.434 285.547 152.521 286.816C152.642 288.046 152.947 289.243 153.42 290.352C154.71 293.46 156.701 296.102 159.181 297.996C159.618 298.375 160.114 298.652 160.641 298.811C161.863 299.106 163.045 298.285 164.252 297.916C165.35 297.582 166.507 297.625 167.585 298.037C168.578 298.43 169.666 299.146 170.649 298.667C171.279 298.257 171.768 297.608 172.035 296.829C172.985 294.741 173.832 292.592 174.573 290.393C174.839 289.534 175.146 288.693 175.492 287.873C176.57 285.487 178.432 283.644 179.361 281.165C179.455 280.976 179.512 280.765 179.528 280.547C179.543 280.329 179.517 280.11 179.451 279.905C179.278 279.629 179.04 279.418 178.765 279.299C177.392 278.384 176.14 277.241 175.05 275.907C174.439 275.225 173.317 273.382 172.437 273.22C171.449 273.024 171.151 274.584 170.481 275.254Z" fill="#A1616A"/>
<path d="M170.699 297.234C169.621 297.812 168.35 297.563 167.183 297.28C164.173 296.546 161.128 295.807 158.342 294.293C157.471 293.905 156.717 293.23 156.171 292.351C155.832 291.6 155.626 290.776 155.565 289.93L155.069 285.886C154.89 284.482 155.198 283.182 155.227 281.76C155.246 281.603 155.238 281.442 155.203 281.289C155.168 281.135 155.107 280.991 155.024 280.865C154.854 280.698 154.634 280.617 154.413 280.639C153.017 280.668 152.173 282.373 151.194 283.528C150.629 284.195 149.953 284.722 149.208 285.077C148.314 285.504 147.221 285.805 146.848 286.845C146.699 287.278 146.719 287.769 146.56 288.203C145.935 289.936 143.267 289.358 142.587 291.092C142.393 291.577 142.408 292.184 142.09 292.565C141.772 292.946 141.176 292.941 140.685 293.033C138.743 293.403 137.804 296.009 136.145 297.24C134.749 298.28 132.951 298.256 131.446 299.065C130.612 299.516 129.872 300.221 128.988 300.516C128.104 300.81 127.105 300.654 126.157 300.683C126.056 300.672 125.954 300.685 125.857 300.722C125.76 300.759 125.671 300.818 125.596 300.897C125.537 301.002 125.498 301.12 125.481 301.243C125.465 301.367 125.472 301.493 125.501 301.614C125.961 305.03 127.178 308.248 129.032 310.951C130.887 313.655 133.314 315.749 136.075 317.029C136.396 317.148 136.7 317.319 136.979 317.538C137.824 318.272 137.973 319.849 138.931 320.369C139.277 320.511 139.65 320.538 140.009 320.448C140.367 320.359 140.698 320.155 140.963 319.861C141.492 319.268 141.989 318.639 142.453 317.977C143.328 316.913 144.477 316.21 145.726 315.972C146.878 315.758 148.165 315.914 149.098 315.088C149.48 314.68 149.836 314.24 150.161 313.771C150.853 313.02 151.674 312.449 152.57 312.095C155.018 310.97 157.606 310.308 160.234 310.136C162.683 309.98 165.201 310.24 167.515 309.316C168.116 309.099 168.67 308.734 169.14 308.247C169.637 307.621 170.007 306.872 170.222 306.057C171.057 303.218 171.222 300.171 170.699 297.234Z" fill="#00B2FF"/>
<path d="M158.714 281.292C159.4 281.217 160.09 281.292 160.78 281.292C161.59 281.292 162.39 281.061 163.199 281.055C164.481 281.08 165.723 281.58 166.743 282.483C167.764 283.386 168.509 284.645 168.871 286.076C168.939 286.305 168.952 286.551 168.906 286.787C168.879 286.904 168.817 287.005 168.732 287.073C168.646 287.141 168.542 287.171 168.439 287.157C168.17 286.302 167.819 285.486 167.391 284.724C166.621 283.502 165.524 282.611 164.272 282.193C163.024 281.782 161.708 281.726 160.438 282.032C159.906 282.147 159.39 282.309 158.873 282.477L156.39 283.274C155.933 283.418 155.471 283.563 155.029 283.754C154.686 283.904 154.1 284.453 153.762 284.476C153.305 284.476 153.673 284.014 153.876 283.701C154.282 283.058 154.85 282.577 155.501 282.326C156.533 281.835 157.612 281.487 158.714 281.292Z" fill="#00B2FF"/>
<path d="M164.982 313.782C165.583 316.024 166.184 318.271 166.939 320.45C168.289 324.238 169.989 327.844 172.01 331.203C173.312 333.415 174.712 335.548 176.202 337.593C178.065 340.153 180.146 342.73 180.812 345.994C181.194 347.89 181.065 349.86 181.224 351.772C181.383 353.685 181.924 355.748 183.265 356.903C184.229 357.724 185.455 357.972 186.633 358.192C187.472 358.348 188.525 358.4 188.967 357.55C189.117 357.202 189.197 356.819 189.2 356.43L189.399 353.604C189.444 352.992 189.633 352.212 190.154 352.183C190.676 352.154 190.949 352.969 191.396 353.338C191.992 353.824 192.886 353.338 193.214 352.605C193.484 351.81 193.501 350.929 193.263 350.12C192.9 348.513 192.249 347.013 191.353 345.718C190.457 344.424 189.336 343.364 188.063 342.609C187.177 342.192 186.328 341.68 185.525 341.077C184.711 340.254 184.037 339.261 183.538 338.148C178.924 329.325 174.29 320.45 171.042 310.835C170.401 309.119 169.967 307.309 169.75 305.456C169.596 303.566 169.845 301.665 169.954 299.77C170.147 296.366 169.875 292.947 169.149 289.641C168.991 288.772 168.709 287.94 168.315 287.18C166.979 284.811 163.845 284.464 161.858 286.094C161.126 286.748 160.519 287.572 160.075 288.514C159.631 289.456 159.361 290.495 159.28 291.565C159.136 293.484 160.09 295.471 160.567 297.257C162.034 302.773 163.506 308.281 164.982 313.782Z" fill="#A1616A"/>
<path d="M192.777 264.391C192.851 263.49 192.156 262.658 191.366 262.08C190.534 261.584 189.736 261.016 188.977 260.381C188.272 259.671 187.884 258.746 187.179 258.036C186.377 257.325 185.467 256.798 184.497 256.481C182.433 255.639 180.266 255.189 178.08 255.146C175.87 255.146 173.61 255.724 171.946 257.036C171.535 257.336 171.181 257.729 170.903 258.192C170.64 258.746 170.472 259.354 170.406 259.983C170.01 261.921 169.473 263.818 168.802 265.651C168.111 267.691 167.376 269.805 165.752 271.383C164.014 273.064 161.357 274.035 160.209 276.069C160.082 276.249 159.993 276.462 159.949 276.69C159.905 276.917 159.908 277.154 159.956 277.38C160.12 277.895 160.646 278.247 161.133 278.571C163.954 280.454 166.388 282.898 167.64 285.816C168.891 288.734 168.856 292.172 167.073 294.859C166.418 295.853 165.514 297.031 166.154 298.031C167.148 299.551 170.471 298.678 171.245 300.284C171.489 300.799 171.345 301.382 171.345 301.943C171.345 303.63 172.74 305.126 174.434 305.907C176.128 306.687 178.09 306.871 179.997 306.97C180.503 305.646 180.553 304.146 180.136 302.781C180.009 302.486 179.959 302.155 179.992 301.827C180.134 301.464 180.355 301.149 180.633 300.914C182.669 298.672 182.237 295.379 181.015 292.715C179.793 290.052 177.886 287.619 177.176 284.817C176.823 283.424 176.823 281.858 177.772 280.703C178.316 280.147 178.903 279.65 179.525 279.218C180.636 278.34 181.492 277.091 181.979 275.635C182.55 273.792 182.475 271.591 184.134 270.348C185.729 269.193 187.969 269.528 189.732 268.736C191.088 268.112 192.667 265.715 192.777 264.391Z" fill="#464353"/>
<path d="M289.083 354.927C281.508 351.281 279.283 348.647 279.283 343.371C279.283 339.327 280.813 334.658 287.518 334.658C291.225 334.595 294.866 335.8 297.988 338.125L300.169 331.417C297.641 329.683 294.075 328.071 288.849 327.869V318.046H284.444V328.273C276.432 329.793 271.793 336.172 271.793 344.579C271.793 353.39 276.264 358.053 285.164 362.104C291.611 365.16 294.983 368.604 294.983 374.174C294.983 379.952 290.806 384.101 284.623 384.101C279.75 384.101 274.227 382.177 271.093 379.744L269.002 386.527C272.052 389.064 277.277 390.884 282.323 390.988V401.215H289.818V390.682C298.758 388.948 303.571 381.437 303.571 373.463C303.571 364.45 298.053 359.18 289.083 354.927Z" fill="url(#paint1_linear_6_241)"/>
<path d="M282.343 398.904V388.677C277.297 388.573 272.072 386.753 269.022 384.216L271.113 377.433C274.247 379.865 279.77 381.789 284.643 381.789C290.826 381.789 294.983 377.641 294.983 371.863C294.983 366.293 291.591 362.849 285.144 359.81C276.264 355.765 271.774 351.097 271.774 342.285C271.774 333.878 276.413 327.499 284.424 325.979V315.752H288.83V325.575C294.055 325.777 297.621 327.395 300.149 329.123L297.968 335.802C294.846 333.478 291.205 332.272 287.498 332.335C280.793 332.335 279.263 336.998 279.263 341.049C279.263 346.312 281.489 348.947 289.063 352.605C298.033 356.857 303.551 362.127 303.551 371.141C303.551 379.143 298.763 386.637 289.798 388.359V398.904H282.343Z" fill="#00B2FF"/>
</g>
<defs>
<linearGradient id="paint0_linear_6_241" x1="151.89" y1="245.601" x2="151.89" y2="135.298" gradientUnits="userSpaceOnUse">
<stop stop-color="#808080" stop-opacity="0.25"/>
<stop offset="0.54" stop-color="#808080" stop-opacity="0.12"/>
<stop offset="1" stop-color="#808080" stop-opacity="0.1"/>
</linearGradient>
<linearGradient id="paint1_linear_6_241" x1="269.022" y1="359.636" x2="303.571" y2="359.636" gradientUnits="userSpaceOnUse">
<stop stop-color="#808080" stop-opacity="0.25"/>
<stop offset="0.54" stop-color="#808080" stop-opacity="0.12"/>
<stop offset="1" stop-color="#808080" stop-opacity="0.1"/>
</linearGradient>
<clipPath id="clip0_6_241">
<rect width="585" height="419" fill="white"/>
</clipPath>
</defs>
</svg>
