<svg width="487" height="335" viewBox="0 0 487 335" fill="none" xmlns="http://www.w3.org/2000/svg">
<g clip-path="url(#clip0_13_6)">
<path d="M473.815 334.26L474.537 334.245C474.258 325.812 473.401 317.41 471.974 309.106C468.851 291.326 463.658 279.649 456.539 274.4L456.125 275.021C472.754 287.283 473.807 333.791 473.815 334.26Z" fill="#F1F1F1"/>
<path d="M464.788 334.079L465.51 334.064C465.494 333.224 465.043 313.427 457.623 307.956L457.208 308.576C464.329 313.827 464.784 333.877 464.788 334.079Z" fill="#F1F1F1"/>
<path d="M452.016 275.09C454.01 275.09 455.627 273.392 455.627 271.297C455.627 269.203 454.01 267.505 452.016 267.505C450.022 267.505 448.405 269.203 448.405 271.297C448.405 273.392 450.022 275.09 452.016 275.09Z" fill="#F1F1F1"/>
<path d="M453.804 307.705C455.798 307.705 457.415 306.007 457.415 303.913C457.415 301.818 455.798 300.12 453.804 300.12C451.81 300.12 450.193 301.818 450.193 303.913C450.193 306.007 451.81 307.705 453.804 307.705Z" fill="#F1F1F1"/>
<path d="M466.471 277.363C466.109 280.288 466.485 283.262 467.561 285.987C469.441 283.781 470.673 281.051 471.109 278.126C471.545 275.201 471.166 272.205 470.019 269.501C468.201 271.75 466.978 274.461 466.471 277.363Z" fill="#F1F1F1"/>
<path d="M454.668 288.42C457.347 289.304 460.201 289.433 462.944 288.795C461.202 286.467 458.857 284.717 456.191 283.756C453.524 282.795 450.65 282.665 447.915 283.381C449.707 285.652 452.035 287.39 454.668 288.42Z" fill="#F1F1F1"/>
<path d="M454.534 317.304C456.413 317.923 458.413 318.014 460.335 317.567C459.115 315.935 457.471 314.708 455.602 314.035C453.733 313.362 451.718 313.27 449.801 313.772C451.057 315.364 452.689 316.582 454.534 317.304Z" fill="#F1F1F1"/>
<path d="M166.279 334.26L165.231 334.239C165.636 321.998 166.88 309.803 168.952 297.75C173.485 271.943 181.022 254.995 191.355 247.375L191.957 248.276C167.82 266.075 166.292 333.58 166.279 334.26Z" fill="#F1F1F1"/>
<path d="M179.382 333.997L178.334 333.975C178.357 332.756 179.012 304.022 189.782 296.08L190.384 296.981C180.048 304.602 179.387 333.704 179.382 333.997Z" fill="#F1F1F1"/>
<path d="M197.92 248.376C200.815 248.376 203.161 245.912 203.161 242.871C203.161 239.831 200.815 237.367 197.92 237.367C195.025 237.367 192.679 239.831 192.679 242.871C192.679 245.912 195.025 248.376 197.92 248.376Z" fill="#F1F1F1"/>
<path d="M195.325 295.716C198.219 295.716 200.566 293.252 200.566 290.212C200.566 287.172 198.219 284.707 195.325 284.707C192.43 284.707 190.083 287.172 190.083 290.212C190.083 293.252 192.43 295.716 195.325 295.716Z" fill="#F1F1F1"/>
<path d="M176.939 251.676C177.465 255.922 176.919 260.239 175.357 264.194C172.629 260.991 170.841 257.029 170.208 252.783C169.575 248.537 170.124 244.19 171.79 240.265C174.428 243.529 176.204 247.464 176.939 251.676Z" fill="#F1F1F1"/>
<path d="M194.071 267.724C190.182 269.007 186.04 269.195 182.059 268.269C184.586 264.889 187.99 262.35 191.861 260.955C195.731 259.561 199.903 259.372 203.873 260.41C201.272 263.708 197.892 266.23 194.071 267.724Z" fill="#F1F1F1"/>
<path d="M194.265 309.649C191.539 310.548 188.635 310.68 185.845 310.03C187.617 307.662 190.003 305.881 192.715 304.904C195.428 303.927 198.352 303.794 201.135 304.522C199.312 306.833 196.943 308.601 194.265 309.649Z" fill="#F1F1F1"/>
<path d="M85.301 99.84L82.779 83.636L75.6583 81.7663C75.6583 81.7663 70.0068 79.9381 68.6859 91.8937C67.3649 103.85 68.389 126.172 68.389 126.172L52.755 178.168C51.5545 178.767 50.5439 179.717 49.8441 180.904C49.1443 182.091 48.7851 183.464 48.8093 184.86C48.8335 186.256 49.2401 187.615 49.9806 188.774C50.7211 189.933 51.7639 190.844 52.9844 191.396C54.2048 191.949 55.5511 192.121 56.8621 191.891C58.1731 191.661 59.3932 191.039 60.3764 190.1C61.3596 189.161 62.0642 187.944 62.4058 186.595C62.7475 185.246 62.7117 183.822 62.3028 182.493L82.6308 133.65L85.301 99.84Z" fill="#FFB7B7"/>
<path d="M128.602 87.0883L124.864 71.1456L130.714 66.4897C130.714 66.4897 135.228 62.4777 140.913 72.9286C146.597 83.3795 154 104.331 154 104.331L187.817 145.705C189.146 145.761 190.43 146.218 191.517 147.021C192.605 147.824 193.449 148.939 193.948 150.232C194.448 151.526 194.582 152.943 194.334 154.315C194.086 155.686 193.468 156.954 192.552 157.966C191.636 158.977 190.462 159.691 189.17 160.02C187.879 160.349 186.524 160.28 185.269 159.822C184.013 159.363 182.91 158.534 182.092 157.435C181.273 156.335 180.774 155.01 180.653 153.62L143.698 117.082L128.602 87.0883Z" fill="#FFB7B7"/>
<path d="M157.826 325.769L166.306 325.769L170.341 291.415L157.825 291.416L157.826 325.769Z" fill="#FFB7B7"/>
<path d="M155.663 322.861L172.364 322.861H172.364C175.187 322.861 177.894 324.038 179.89 326.135C181.886 328.231 183.007 331.074 183.007 334.038V334.402L155.664 334.403L155.663 322.861Z" fill="#2F2E41"/>
<path d="M51.3036 325.769L59.7837 325.769L63.8182 291.415L51.3019 291.416L51.3036 325.769Z" fill="#FFB7B7"/>
<path d="M49.1404 322.861L65.8409 322.861H65.8416C68.6642 322.861 71.3712 324.038 73.3671 326.135C75.363 328.231 76.4843 331.074 76.4845 334.038V334.402L49.1409 334.403L49.1404 322.861Z" fill="#2F2E41"/>
<path d="M103.314 56.5555C115.981 56.5555 126.25 45.7705 126.25 32.4666C126.25 19.1626 115.981 8.37769 103.314 8.37769C90.6464 8.37769 80.3776 19.1626 80.3776 32.4666C80.3776 45.7705 90.6464 56.5555 103.314 56.5555Z" fill="#2F2E41"/>
<path d="M85.4109 19.4785C89.1173 15.5858 89.8684 10.0635 87.0886 7.14396C84.3088 4.22445 79.0508 5.01336 75.3444 8.90603C71.638 12.7987 70.8869 18.3211 73.6667 21.2406C76.4464 24.1601 81.7045 23.3712 85.4109 19.4785Z" fill="#2F2E41"/>
<path d="M127.219 11.8286C128.763 8.03174 126.108 3.20066 121.287 1.03812C116.467 -1.12441 111.308 0.200508 109.763 3.99741C108.219 7.79431 110.875 12.6254 115.695 14.7879C120.515 16.9505 125.675 15.6255 127.219 11.8286Z" fill="#2F2E41"/>
<path d="M121.121 48.0233C126.278 38.116 122.811 25.6942 113.378 20.2784C103.945 14.8626 92.1175 18.5037 86.9609 28.4109C81.8043 38.3182 85.2711 50.74 94.7042 56.1558C104.137 61.5716 115.965 57.9305 121.121 48.0233Z" fill="#FFB7B7"/>
<path d="M83.5873 25.3578C88.0355 28.5778 93.3151 30.2914 98.7174 30.2687C96.7903 31.6721 94.5965 32.62 92.287 33.0472C99.4698 34.6654 106.893 34.7092 114.093 33.1759C115.693 32.9064 117.237 32.3493 118.658 31.5292C119.366 31.1141 119.982 30.5472 120.468 29.8653C120.953 29.1835 121.296 28.4019 121.475 27.5715C121.954 24.7011 119.824 22.0932 117.611 20.3356C114.222 17.6857 110.315 15.86 106.173 14.9906C102.03 14.1211 97.7549 14.2297 93.6569 15.3083C90.9811 16.0348 88.3005 17.2622 86.5625 19.5191C84.8245 21.776 84.3097 25.2554 85.9656 27.5794L83.5873 25.3578Z" fill="#2F2E41"/>
<path d="M94.2856 64.8025L75.019 81.3277L91.8531 123.484L92.1742 130.229C92.1742 130.229 74.6989 147.151 63.8863 194.423C53.0736 241.694 31.2351 304.507 31.2351 304.507L74.924 315.732L105.3 208.799L144.022 292.691L149.531 317.504L183.303 307.658L170.269 241.069L138.301 137.706L140.926 109.151C140.926 109.151 146.776 94.8986 136.614 79.8088L133.426 65.6298L116.925 62.6758L94.2856 64.8025Z" fill="#2F2E41"/>
<path d="M418.263 214.827H284.502C283.434 214.826 282.41 214.379 281.654 213.586C280.899 212.793 280.474 211.717 280.473 210.595V163.203C280.474 162.081 280.899 161.006 281.654 160.212C282.41 159.419 283.434 158.973 284.502 158.972H418.263C419.331 158.973 420.355 159.419 421.11 160.212C421.865 161.006 422.29 162.081 422.292 163.203V210.595C422.29 211.717 421.865 212.793 421.11 213.586C420.355 214.379 419.331 214.826 418.263 214.827Z" fill="#E5E5E5"/>
<path d="M336.878 171.666H301.423V175.897H336.878V171.666Z" fill="white"/>
<path d="M383.614 176.744C384.949 176.744 386.031 175.607 386.031 174.205C386.031 172.803 384.949 171.666 383.614 171.666C382.279 171.666 381.196 172.803 381.196 174.205C381.196 175.607 382.279 176.744 383.614 176.744Z" fill="#00B2FF"/>
<path d="M391.672 176.744C393.007 176.744 394.089 175.607 394.089 174.205C394.089 172.803 393.007 171.666 391.672 171.666C390.337 171.666 389.254 172.803 389.254 174.205C389.254 175.607 390.337 176.744 391.672 176.744Z" fill="#00B2FF"/>
<path d="M399.729 176.744C401.065 176.744 402.147 175.607 402.147 174.205C402.147 172.803 401.065 171.666 399.729 171.666C398.394 171.666 397.312 172.803 397.312 174.205C397.312 175.607 398.394 176.744 399.729 176.744Z" fill="#00B2FF"/>
<path d="M418.263 274.913H284.502C283.434 274.912 282.41 274.466 281.654 273.673C280.899 272.879 280.474 271.804 280.473 270.682V223.29C280.474 222.168 280.899 221.092 281.654 220.299C282.41 219.506 283.434 219.059 284.502 219.058H418.263C419.331 219.059 420.355 219.506 421.11 220.299C421.865 221.092 422.29 222.168 422.292 223.29V270.682C422.29 271.804 421.865 272.879 421.11 273.673C420.355 274.466 419.331 274.912 418.263 274.913Z" fill="#E5E5E5"/>
<path d="M336.878 231.753H301.423V235.984H336.878V231.753Z" fill="white"/>
<path d="M383.614 236.83C384.949 236.83 386.031 235.694 386.031 234.292C386.031 232.889 384.949 231.753 383.614 231.753C382.279 231.753 381.196 232.889 381.196 234.292C381.196 235.694 382.279 236.83 383.614 236.83Z" fill="#00B2FF"/>
<path d="M391.672 236.83C393.007 236.83 394.089 235.694 394.089 234.292C394.089 232.889 393.007 231.753 391.672 231.753C390.337 231.753 389.254 232.889 389.254 234.292C389.254 235.694 390.337 236.83 391.672 236.83Z" fill="#00B2FF"/>
<path d="M399.729 236.83C401.065 236.83 402.147 235.694 402.147 234.292C402.147 232.889 401.065 231.753 399.729 231.753C398.394 231.753 397.312 232.889 397.312 234.292C397.312 235.694 398.394 236.83 399.729 236.83Z" fill="#00B2FF"/>
<path d="M418.263 335H284.502C283.434 334.999 282.41 334.552 281.654 333.759C280.899 332.966 280.474 331.89 280.473 330.769V283.376C280.474 282.254 280.899 281.179 281.654 280.386C282.41 279.592 283.434 279.146 284.502 279.145H418.263C419.331 279.146 420.355 279.592 421.11 280.386C421.865 281.179 422.29 282.254 422.292 283.376V330.769C422.29 331.89 421.865 332.966 421.11 333.759C420.355 334.552 419.331 334.999 418.263 335Z" fill="#E5E5E5"/>
<path d="M336.878 291.839H301.423V296.071H336.878V291.839Z" fill="white"/>
<path d="M383.614 296.917C384.949 296.917 386.031 295.78 386.031 294.378C386.031 292.976 384.949 291.839 383.614 291.839C382.279 291.839 381.196 292.976 381.196 294.378C381.196 295.78 382.279 296.917 383.614 296.917Z" fill="#00B2FF"/>
<path d="M391.672 296.917C393.007 296.917 394.089 295.78 394.089 294.378C394.089 292.976 393.007 291.839 391.672 291.839C390.337 291.839 389.254 292.976 389.254 294.378C389.254 295.78 390.337 296.917 391.672 296.917Z" fill="#00B2FF"/>
<path d="M399.729 296.917C401.065 296.917 402.147 295.78 402.147 294.378C402.147 292.976 401.065 291.839 399.729 291.839C398.394 291.839 397.312 292.976 397.312 294.378C397.312 295.78 398.394 296.917 399.729 296.917Z" fill="#00B2FF"/>
<path d="M257.75 232.813C255.203 232.804 252.666 232.459 250.2 231.787L249.714 231.646L249.263 231.409C232.962 222.825 219.211 211.487 208.389 197.71C199.431 186.239 192.447 173.214 187.752 159.222C182.136 142.47 179.434 124.794 179.775 107.037C179.782 106.665 179.788 106.377 179.788 106.178C179.788 97.547 184.35 89.9735 191.41 86.884C196.813 84.5194 245.873 63.3558 249.418 61.8266C256.093 58.3136 263.215 61.2458 264.355 61.7585C266.911 62.8562 312.264 82.3384 322.064 87.2398C332.165 92.2914 334.86 101.366 334.86 105.932C334.86 126.603 331.451 145.921 324.729 163.351C319.3 177.458 311.605 190.483 301.98 201.856C283.409 223.805 264.833 231.587 264.654 231.655C262.434 232.457 260.098 232.849 257.75 232.813ZM253.382 221.448C254.992 221.827 258.7 222.396 261.117 221.47C264.187 220.294 279.735 211.827 294.263 194.655C314.337 170.929 324.523 141.104 324.538 106.008C324.502 105.297 324.021 100.226 317.627 97.0283C308.016 92.2217 260.876 71.9772 260.4 71.7731L260.27 71.7151C259.282 71.2803 256.138 70.3645 253.971 71.5573L253.537 71.7697C253.012 71.9964 200.934 94.4608 195.38 96.8913C191.495 98.5915 190.111 102.804 190.111 106.179C190.111 106.425 190.105 106.784 190.096 107.248C189.652 131.262 194.943 190.353 253.382 221.448Z" fill="#3F3D56"/>
<path d="M251.576 66.7554C251.576 66.7554 199.026 89.4236 193.395 91.8876C187.765 94.3515 184.949 100.265 184.949 106.178C184.949 112.092 180.727 189.255 251.576 226.563C251.576 226.563 258.007 228.431 262.885 226.563C267.764 224.694 329.699 193.155 329.699 105.932C329.699 105.932 329.699 97.0618 319.845 92.1339C309.992 87.2061 262.353 66.7554 262.353 66.7554C262.353 66.7554 256.503 64.045 251.576 66.7554Z" fill="#00B2FF"/>
<path opacity="0.2" d="M257.207 84.4958V205.423C257.207 205.423 310.227 178.618 309.758 108.15L257.207 84.4958Z" fill="black"/>
<path d="M486.41 335H0.589588C0.43322 335 0.283255 334.935 0.172686 334.819C0.0621167 334.702 0 334.545 0 334.381C0 334.216 0.0621167 334.059 0.172686 333.943C0.283255 333.827 0.43322 333.761 0.589588 333.761H486.41C486.567 333.761 486.717 333.827 486.827 333.943C486.938 334.059 487 334.216 487 334.381C487 334.545 486.938 334.702 486.827 334.819C486.717 334.935 486.567 335 486.41 335Z" fill="#CBCBCB"/>
</g>
<defs>
<clipPath id="clip0_13_6">
<rect width="487" height="335" fill="white"/>
</clipPath>
</defs>
</svg>
