<svg width="88" height="33" viewBox="0 0 88 33" fill="none" xmlns="http://www.w3.org/2000/svg">
<path d="M5.23125 32.48C3.76458 32.48 2.65792 32.2267 1.91125 31.72C1.16458 31.24 0.79125 30.4267 0.79125 29.28C0.79125 29.2 0.857917 29.16 0.99125 29.16C1.17792 29.16 1.51125 29.2267 1.99125 29.36C2.47125 29.4933 3.39125 29.56 4.75125 29.56C7.04458 29.56 9.16458 29.3067 11.1113 28.8C13.0579 28.2667 14.7379 27.5467 16.1513 26.64C17.5913 25.7333 18.6979 24.72 19.4713 23.6C20.2713 22.4533 20.6713 21.28 20.6713 20.08C20.6713 18.9867 20.3646 18.1067 19.7513 17.44C19.1379 16.7733 18.3246 16.2667 17.3113 15.92C16.3246 15.5733 15.2446 15.3467 14.0713 15.24C12.8979 15.1067 11.7379 15.04 10.5912 15.04C10.0846 15.04 9.56458 15.0533 9.03125 15.08C8.52458 15.08 8.04458 15.08 7.59125 15.08C6.97792 17.24 6.37792 19.4133 5.79125 21.6C5.20458 23.7867 4.60458 25.9067 3.99125 27.96C3.32458 27.96 2.76458 27.7733 2.31125 27.4C1.85792 27.0267 1.63125 26.5733 1.63125 26.04C1.63125 25.72 1.69792 25.3467 1.83125 24.92C1.96458 24.4933 2.08458 24.1067 2.19125 23.76C2.35125 23.2267 2.63125 22.3333 3.03125 21.08C3.43125 19.8267 3.91125 18.36 4.47125 16.68C5.05792 15 5.69792 13.24 6.39125 11.4C7.08458 9.56 7.79125 7.76 8.51125 6C9.25792 4.24 9.97792 2.68 10.6713 1.32C9.55125 1.50666 8.60458 1.77333 7.83125 2.12C7.08458 2.46666 6.49792 2.78667 6.07125 3.08C5.64458 3.34667 5.33792 3.48 5.15125 3.48C5.01792 3.48 4.84458 3.42667 4.63125 3.32C4.44458 3.18667 4.27125 3.04 4.11125 2.88C3.95125 2.69333 3.87125 2.53333 3.87125 2.4C5.20458 1.84 6.59125 1.33333 8.03125 0.88C9.49792 0.426666 11.2713 0.199999 13.3513 0.199999C14.2313 0.199999 15.2046 0.279999 16.2713 0.439998C17.3379 0.573331 18.3513 0.866665 19.3113 1.32C20.2713 1.74666 21.0579 2.38666 21.6713 3.24C22.2846 4.06667 22.5913 5.17333 22.5913 6.56C22.5913 7.86667 22.3113 8.98667 21.7513 9.92C21.1913 10.8267 20.4579 11.5867 19.5513 12.2C18.6446 12.7867 17.6579 13.2533 16.5913 13.6C15.5246 13.9467 14.4713 14.2 13.4313 14.36C15.4046 14.4667 16.9913 14.7467 18.1913 15.2C19.4179 15.6533 20.3379 16.2 20.9513 16.84C21.5913 17.4533 22.0179 18.1067 22.2313 18.8C22.4446 19.4933 22.5513 20.16 22.5513 20.8C22.5513 22.3467 22.1513 23.7467 21.3513 25C20.5513 26.2533 19.4979 27.3467 18.1913 28.28C16.8846 29.2133 15.4579 29.9867 13.9113 30.6C12.3646 31.24 10.8313 31.7067 9.31125 32C7.79125 32.32 6.43125 32.48 5.23125 32.48ZM7.83125 14.16C9.29792 14.1067 10.7513 13.9467 12.1913 13.68C13.6579 13.3867 14.9913 12.9333 16.1913 12.32C17.3913 11.7067 18.3513 10.9067 19.0713 9.92C19.8179 8.93333 20.1913 7.70667 20.1913 6.24C20.1913 4.85333 19.8579 3.78666 19.1913 3.04C18.5513 2.29333 17.7113 1.77333 16.6713 1.48C15.6579 1.18666 14.5779 1.04 13.4313 1.04C13.2979 1.04 13.1646 1.04 13.0313 1.04C12.9246 1.04 12.8046 1.05333 12.6713 1.08C11.7113 2.94667 10.8313 5 10.0312 7.24C9.25792 9.48 8.52458 11.7867 7.83125 14.16ZM27.1272 30.28C25.9805 30.28 25.1672 29.92 24.6872 29.2C24.2072 28.5067 23.9672 27.6533 23.9672 26.64C23.9672 25.8133 24.1005 24.96 24.3672 24.08C24.6339 23.2 24.9805 22.3733 25.4072 21.6C25.8605 20.8267 26.3539 20.2 26.8872 19.72C27.4472 19.24 28.0072 19 28.5672 19C28.7005 19 28.8339 19.0267 28.9672 19.08C29.1272 19.1067 29.2739 19.1467 29.4072 19.2C29.1672 19.4133 28.8739 19.8133 28.5272 20.4C28.2072 20.96 27.9005 21.6133 27.6072 22.36C27.3139 23.08 27.0605 23.8 26.8472 24.52C26.6605 25.24 26.5672 25.8533 26.5672 26.36C26.5672 27.16 26.7005 27.7467 26.9672 28.12C27.2339 28.4667 27.5805 28.64 28.0072 28.64C28.5672 28.64 29.2339 28.3467 30.0072 27.76C30.7805 27.1467 31.5405 26.3733 32.2872 25.44C31.5405 24.8267 30.9539 24.0267 30.5272 23.04C30.1272 22.0267 29.9272 21 29.9272 19.96C29.9272 19.08 30.0739 18.2533 30.3672 17.48C30.6872 16.7067 31.1405 16.0933 31.7272 15.64C32.3139 15.16 33.0205 14.92 33.8472 14.92C34.9405 14.92 35.6739 15.2133 36.0472 15.8C36.4205 16.3867 36.6072 17.12 36.6072 18C36.6072 19.04 36.3539 20.2 35.8472 21.48C35.3405 22.7333 34.7005 23.9467 33.9272 25.12C34.4072 25.3867 34.9139 25.52 35.4472 25.52C35.8739 25.52 36.3539 25.44 36.8872 25.28C37.4205 25.0933 37.9405 24.7867 38.4472 24.36C38.9805 23.9333 39.4072 23.36 39.7272 22.64L40.2072 23.04C39.6739 24.2933 38.9139 25.1867 37.9272 25.72C36.9672 26.2267 36.0472 26.48 35.1672 26.48C34.8205 26.48 34.4872 26.4533 34.1672 26.4C33.8472 26.32 33.5405 26.2133 33.2472 26.08C32.3405 27.28 31.3405 28.28 30.2472 29.08C29.1805 29.88 28.1405 30.28 27.1272 30.28ZM33.0072 24.4C33.6739 23.4133 34.2205 22.3867 34.6472 21.32C35.1005 20.2267 35.3272 19.2 35.3272 18.24C35.3272 17.4667 35.2072 16.9067 34.9672 16.56C34.7539 16.1867 34.4739 16 34.1272 16C33.5939 16 33.0472 16.3867 32.4872 17.16C31.9272 17.9333 31.6472 18.9067 31.6472 20.08C31.6472 20.8533 31.7539 21.64 31.9672 22.44C32.2072 23.2133 32.5539 23.8667 33.0072 24.4ZM42.3766 30.84C41.2299 30.84 40.3499 30.5067 39.7366 29.84C39.1232 29.1733 38.8166 28.1867 38.8166 26.88C38.8166 25.7067 39.0299 24.2667 39.4566 22.56C39.9099 20.8267 40.4699 19.0533 41.1366 17.24C40.8699 17.1867 40.6166 17.1467 40.3766 17.12C40.1366 17.0667 39.9099 17 39.6966 16.92V16.2C39.9099 16.2267 40.1632 16.2533 40.4566 16.28C40.7499 16.3067 41.0832 16.3333 41.4566 16.36C42.0166 14.92 42.6166 13.5333 43.2566 12.2C43.8966 10.84 44.5232 9.64 45.1366 8.6C45.7766 7.53333 46.3766 6.69333 46.9366 6.08C47.5232 5.44 48.0166 5.12 48.4166 5.12C48.6299 5.12 48.8166 5.2 48.9766 5.36C49.1632 5.49333 49.2566 5.70667 49.2566 6C49.2566 6.45333 48.9766 7.2 48.4166 8.24C47.8566 9.25333 47.1632 10.4667 46.3366 11.88C45.5099 13.2933 44.7099 14.8267 43.9366 16.48C44.1766 16.48 44.4166 16.48 44.6566 16.48C44.9232 16.48 45.1766 16.48 45.4166 16.48C46.2966 16.48 47.2166 16.4667 48.1766 16.44C49.1632 16.4133 50.1499 16.3467 51.1366 16.24V16.96C49.6699 17.12 48.3499 17.24 47.1766 17.32C46.0299 17.4 45.0032 17.44 44.0966 17.44C43.9899 17.44 43.8832 17.44 43.7766 17.44C43.6966 17.44 43.6032 17.44 43.4966 17.44C42.8832 18.8533 42.3632 20.3067 41.9366 21.8C41.5099 23.2933 41.2966 24.7467 41.2966 26.16C41.2966 27.3067 41.4699 28.1333 41.8166 28.64C42.1632 29.12 42.7366 29.36 43.5366 29.36C44.9232 29.36 46.2832 28.7467 47.6166 27.52C48.9499 26.2933 50.1232 24.6267 51.1366 22.52L51.6566 22.92C51.0166 24.4133 50.2032 25.76 49.2166 26.96C48.2566 28.16 47.1899 29.1067 46.0166 29.8C44.8432 30.4933 43.6299 30.84 42.3766 30.84ZM53.2628 30.04C52.2228 30.04 51.4495 29.7067 50.9428 29.04C50.4361 28.4 50.1828 27.6133 50.1828 26.68C50.1828 26.0667 50.2895 25.2933 50.5028 24.36C50.7428 23.4267 51.0495 22.4533 51.4228 21.44C51.7961 20.4 52.2228 19.4267 52.7028 18.52C53.2095 17.6133 53.7428 16.88 54.3028 16.32C54.8628 15.7333 55.4095 15.44 55.9428 15.44C56.1828 15.44 56.3828 15.52 56.5428 15.68C56.7295 15.8133 56.8228 16.0267 56.8228 16.32C56.8228 16.64 56.6095 17.16 56.1828 17.88C55.7828 18.6 55.3028 19.4267 54.7428 20.36C54.1828 21.2933 53.6895 22.28 53.2628 23.32C52.8628 24.3333 52.6628 25.3067 52.6628 26.24C52.6628 27.2 52.8228 27.84 53.1428 28.16C53.4628 28.48 53.9561 28.64 54.6228 28.64C55.5295 28.64 56.4895 28.1867 57.5028 27.28C58.5428 26.3733 59.6361 24.7867 60.7828 22.52L61.1428 22.92C60.3695 25.2133 59.2495 26.9733 57.7828 28.2C56.3428 29.4267 54.8361 30.04 53.2628 30.04ZM58.0628 11.72C57.6361 11.72 57.2495 11.6133 56.9028 11.4C56.5828 11.1867 56.4228 10.8533 56.4228 10.4C56.4228 9.84 56.7428 9.36 57.3828 8.96C58.0495 8.53333 58.7028 8.32 59.3428 8.32C59.7428 8.32 60.0628 8.41333 60.3028 8.6C60.5428 8.78667 60.6628 9.10667 60.6628 9.56C60.6628 10.0667 60.3828 10.56 59.8228 11.04C59.2895 11.4933 58.7028 11.72 58.0628 11.72ZM62.6313 30.56C61.8046 30.56 61.2313 30.1467 60.9113 29.32C60.5913 28.52 60.4313 27.4667 60.4313 26.16C60.4313 26.1067 60.4446 25.6933 60.4713 24.92C60.4979 24.12 60.5646 22.7867 60.6713 20.92C60.7246 20.2 60.8046 19.7067 60.9113 19.44C61.0179 19.1733 61.3646 19.04 61.9513 19.04C62.4046 19.04 62.6846 19.1333 62.7913 19.32C62.9246 19.48 62.9913 19.8133 62.9913 20.32C62.9913 21.2 62.9246 22.24 62.7913 23.44C62.6846 24.6133 62.6313 25.72 62.6313 26.76C62.6313 27.5333 62.6979 28.1067 62.8313 28.48C62.9646 28.8267 63.2046 29 63.5513 29C64.0313 29 64.5646 28.7333 65.1513 28.2C65.7379 27.64 66.3379 26.92 66.9513 26.04C67.5646 25.1333 68.1379 24.1733 68.6713 23.16C69.2313 22.1467 69.7246 21.1733 70.1513 20.24C70.2046 18.4267 70.3913 17.2267 70.7113 16.64C71.0579 16.0267 71.4846 15.72 71.9913 15.72C72.4979 15.72 72.8579 15.9067 73.0713 16.28C73.3113 16.6267 73.4313 16.9467 73.4313 17.24C73.4313 17.5867 73.3113 17.9467 73.0713 18.32C72.8579 18.6933 72.6313 19.2 72.3913 19.84C72.1513 20.48 72.0313 21.4 72.0313 22.6C72.0313 23.0267 72.0713 23.48 72.1513 23.96C72.2313 24.44 72.4046 24.84 72.6713 25.16C72.9379 25.48 73.3513 25.64 73.9113 25.64C74.4713 25.64 75.0046 25.4267 75.5113 25C76.0446 24.5467 76.5646 23.7733 77.0713 22.68L77.5913 23.08C77.0046 24.4133 76.3513 25.3067 75.6313 25.76C74.9379 26.2133 74.2713 26.44 73.6313 26.44C72.7513 26.44 72.0179 26.12 71.4313 25.48C70.8446 24.84 70.4579 23.8667 70.2713 22.56C69.6313 23.8667 68.8713 25.1333 67.9913 26.36C67.1379 27.56 66.2446 28.56 65.3112 29.36C64.3779 30.16 63.4846 30.56 62.6313 30.56ZM79.2003 30.04C78.1603 30.04 77.387 29.7067 76.8803 29.04C76.3736 28.4 76.1203 27.6133 76.1203 26.68C76.1203 26.0667 76.227 25.2933 76.4403 24.36C76.6803 23.4267 76.987 22.4533 77.3603 21.44C77.7336 20.4 78.1603 19.4267 78.6403 18.52C79.147 17.6133 79.6803 16.88 80.2403 16.32C80.8003 15.7333 81.347 15.44 81.8803 15.44C82.1203 15.44 82.3203 15.52 82.4803 15.68C82.667 15.8133 82.7603 16.0267 82.7603 16.32C82.7603 16.64 82.547 17.16 82.1203 17.88C81.7203 18.6 81.2403 19.4267 80.6803 20.36C80.1203 21.2933 79.627 22.28 79.2003 23.32C78.8003 24.3333 78.6003 25.3067 78.6003 26.24C78.6003 27.2 78.7603 27.84 79.0803 28.16C79.4003 28.48 79.8936 28.64 80.5603 28.64C81.467 28.64 82.427 28.1867 83.4403 27.28C84.4803 26.3733 85.5736 24.7867 86.7203 22.52L87.0803 22.92C86.307 25.2133 85.187 26.9733 83.7203 28.2C82.2803 29.4267 80.7736 30.04 79.2003 30.04ZM84.0003 11.72C83.5736 11.72 83.187 11.6133 82.8403 11.4C82.5203 11.1867 82.3603 10.8533 82.3603 10.4C82.3603 9.84 82.6803 9.36 83.3203 8.96C83.987 8.53333 84.6403 8.32 85.2803 8.32C85.6803 8.32 86.0003 8.41333 86.2403 8.6C86.4803 8.78667 86.6003 9.10667 86.6003 9.56C86.6003 10.0667 86.3203 10.56 85.7603 11.04C85.227 11.4933 84.6403 11.72 84.0003 11.72Z" fill="#00B2FF"/>
</svg>
